<?xml version="1.0" standalone="no"?><!-- Generator: Gravit.io --><svg xmlns="http://www.w3.org/2000/svg" xmlns:xlink="http://www.w3.org/1999/xlink" style="isolation:isolate" viewBox="0 0 140 140" width="140" height="140"><defs><clipPath id="_clipPath_9szufB3GqDBwqx4M8hfY8Uf5zShhpoHp"><rect width="140" height="140"/></clipPath></defs><g clip-path="url(#_clipPath_9szufB3GqDBwqx4M8hfY8Uf5zShhpoHp)"><rect width="140" height="140" style="fill:rgb(94,94,94)" id="BG"/><g id="Combined"><path d=" M 29.95 11 L 88 11 L 115 37 L 115 124.05 C 115 126.782 112.782 129 110.05 129 L 29.95 129 C 27.218 129 25 126.782 25 124.05 L 25 15.95 C 25 13.218 27.218 11 29.95 11 Z " fill="none" vector-effect="non-scaling-stroke" stroke-width="2" stroke="rgb(255,255,255)" stroke-linejoin="miter" stroke-linecap="square" stroke-miterlimit="3"/><clipPath id="_clipPath_ZRwPcpNs4bogkYFxrMqyp2FF0Gm1AhYI"><path d=" M 29.95 11 L 88 11 L 115 37 L 115 124.05 C 115 126.782 112.782 129 110.05 129 L 29.95 129 C 27.218 129 25 126.782 25 124.05 L 25 15.95 C 25 13.218 27.218 11 29.95 11 Z " fill="none" vector-effect="non-scaling-stroke" stroke-width="2" stroke="rgb(255,255,255)" stroke-linejoin="miter" stroke-linecap="square" stroke-miterlimit="3"/></clipPath><g clip-path="url(#_clipPath_ZRwPcpNs4bogkYFxrMqyp2FF0Gm1AhYI)"><path d=" M 88 11 L 115 37 L 92 37 C 89.792 37 88 35.208 88 33 L 88 11" fill="none" vector-effect="non-scaling-stroke" stroke-width="2" stroke="rgb(255,255,255)" stroke-linejoin="miter" stroke-linecap="square" stroke-miterlimit="3"/><line x1="88" y1="11" x2="115" y2="37" vector-effect="non-scaling-stroke" stroke-width="2" stroke="rgb(255,255,255)" stroke-linejoin="miter" stroke-linecap="square" stroke-miterlimit="3"/></g><g id="Text"><g id="row1"><line x1="35" y1="26" x2="81" y2="26" vector-effect="non-scaling-stroke" stroke-width="2" stroke="rgb(255,255,255)" stroke-linejoin="miter" stroke-linecap="square" stroke-miterlimit="3"/></g><g id="row2"><line x1="35" y1="44" x2="106" y2="44" vector-effect="non-scaling-stroke" stroke-width="2" stroke="rgb(255,255,255)" stroke-linejoin="miter" stroke-linecap="square" stroke-miterlimit="3"/></g><g id="row3"><line x1="35" y1="62" x2="106" y2="62" vector-effect="non-scaling-stroke" stroke-width="2" stroke="rgb(255,255,255)" stroke-linejoin="miter" stroke-linecap="square" stroke-miterlimit="3"/></g><g id="row4"><line x1="35" y1="80" x2="106" y2="80" vector-effect="non-scaling-stroke" stroke-width="2" stroke="rgb(255,255,255)" stroke-linejoin="miter" stroke-linecap="square" stroke-miterlimit="3"/></g><g id="row5"><line x1="35" y1="98" x2="106" y2="98" vector-effect="non-scaling-stroke" stroke-width="2" stroke="rgb(255,255,255)" stroke-linejoin="miter" stroke-linecap="square" stroke-miterlimit="3"/></g><g id="row6"><line x1="35" y1="116" x2="106" y2="116" vector-effect="non-scaling-stroke" stroke-width="2" stroke="rgb(255,255,255)" stroke-linejoin="miter" stroke-linecap="square" stroke-miterlimit="3"/></g></g></g></g></svg>