<?xml version="1.0" standalone="no"?><!-- Generator: Gravit.io --><svg xmlns="http://www.w3.org/2000/svg" xmlns:xlink="http://www.w3.org/1999/xlink" style="isolation:isolate" viewBox="0 0 267.069 100" width="267.069" height="100"><defs><clipPath id="_clipPath_vdMRkgKLdGX2zVm0SdHi0ehzPNLCPxUZ"><rect width="267.069" height="100"/></clipPath></defs><g clip-path="url(#_clipPath_vdMRkgKLdGX2zVm0SdHi0ehzPNLCPxUZ)"><rect width="267.069" height="100" style="fill:rgb(0,0,0)"/><g id="Group"><path d=" M 66.494 72.676 L 41.514 72.676 L 48.222 41.116 L 57.805 41.116 L 52.886 64.243 L 66.494 64.243 L 66.494 64.243 Q 69.88 64.243 70.774 60.09 L 70.774 60.09 L 74.607 42.074 L 74.607 42.074 Q 74.799 41.307 74.799 40.605 L 74.799 40.605 L 74.799 40.605 Q 74.799 37.921 72.052 37.921 L 72.052 37.921 L 48.861 37.921 L 50.65 29.424 L 75.63 29.424 L 75.63 29.424 Q 85.085 29.424 85.085 37.091 L 85.085 37.091 L 85.085 37.091 Q 85.085 38.688 84.702 40.477 L 84.702 40.477 L 80.166 61.623 L 80.166 61.623 Q 79.016 67.054 75.63 69.865 L 75.63 69.865 L 75.63 69.865 Q 72.244 72.676 66.494 72.676 L 66.494 72.676 Z  M 120.67 72.676 L 110.895 72.676 L 110.448 65.968 L 94.86 65.968 L 91.537 72.676 L 82.146 72.676 L 104.634 29.424 L 117.348 29.424 L 120.67 72.676 Z  M 110.129 58.812 L 108.787 38.113 L 98.309 58.812 L 110.129 58.812 Z  M 135.172 72.676 L 125.461 72.676 L 134.597 29.424 L 144.308 29.424 L 135.172 72.676 Z  M 174.016 72.676 L 149.547 72.676 L 149.547 72.676 Q 146.289 72.676 144.883 71.526 L 144.883 71.526 L 144.883 71.526 Q 143.478 70.376 143.478 67.948 L 143.478 67.948 L 143.478 67.948 Q 143.478 67.309 143.542 66.639 L 143.542 66.639 L 143.542 66.639 Q 143.605 65.968 143.797 65.137 L 143.797 65.137 L 149.739 36.963 L 149.739 36.963 Q 150.569 33.13 152.582 31.277 L 152.582 31.277 L 152.582 31.277 Q 154.594 29.424 158.683 29.424 L 158.683 29.424 L 183.024 29.424 L 181.235 38.049 L 161.685 38.049 L 161.685 38.049 Q 160.152 38.049 159.609 38.528 L 159.609 38.528 L 159.609 38.528 Q 159.066 39.007 158.747 40.477 L 158.747 40.477 L 154.211 61.56 L 154.211 61.56 Q 154.147 61.879 154.115 62.103 L 154.115 62.103 L 154.115 62.103 Q 154.083 62.326 154.083 62.582 L 154.083 62.582 L 154.083 62.582 Q 154.083 63.285 154.53 63.604 L 154.53 63.604 L 154.53 63.604 Q 154.977 63.923 156.191 63.923 L 156.191 63.923 L 175.868 63.923 L 174.016 72.676 Z  M 208.579 72.676 L 187.049 72.676 L 187.049 72.676 Q 183.79 72.676 182.353 71.526 L 182.353 71.526 L 182.353 71.526 Q 180.915 70.376 180.915 68.012 L 180.915 68.012 L 180.915 68.012 Q 180.915 66.798 181.299 65.137 L 181.299 65.137 L 187.24 36.963 L 187.24 36.963 Q 188.071 33.13 190.051 31.277 L 190.051 31.277 L 190.051 31.277 Q 192.032 29.424 196.184 29.424 L 196.184 29.424 L 217.714 29.424 L 217.714 29.424 Q 220.973 29.424 222.378 30.574 L 222.378 30.574 L 222.378 30.574 Q 223.784 31.724 223.784 34.152 L 223.784 34.152 L 223.784 34.152 Q 223.784 34.791 223.688 35.494 L 223.688 35.494 L 223.688 35.494 Q 223.592 36.196 223.464 36.963 L 223.464 36.963 L 217.523 65.137 L 217.523 65.137 Q 216.692 68.97 214.68 70.823 L 214.68 70.823 L 214.68 70.823 Q 212.667 72.676 208.579 72.676 L 208.579 72.676 Z  M 208.451 61.879 L 213.051 40.349 L 213.051 40.349 Q 213.115 40.03 213.146 39.774 L 213.146 39.774 L 213.146 39.774 Q 213.178 39.519 213.178 39.327 L 213.178 39.327 L 213.178 39.327 Q 213.178 37.857 210.942 37.857 L 210.942 37.857 L 198.868 37.857 L 198.868 37.857 Q 197.59 37.857 197.047 38.369 L 197.047 38.369 L 197.047 38.369 Q 196.504 38.88 196.184 40.349 L 196.184 40.349 L 191.585 61.879 L 191.585 61.879 Q 191.457 62.518 191.457 62.71 L 191.457 62.71 L 191.457 62.71 Q 191.457 64.051 193.31 64.051 L 193.31 64.051 L 205.384 64.051 L 205.384 64.051 Q 206.917 64.051 207.556 63.54 L 207.556 63.54 L 207.556 63.54 Q 208.195 63.029 208.451 61.879 L 208.451 61.879 Z " fill-rule="evenodd" fill="rgb(66,81,97)"/><path d=" M 229.154 22.127 L 232.773 26.263 C 234.203 27.898 235.543 30.981 235.763 33.142 L 240.726 81.994 C 240.901 83.723 239.633 85.127 237.894 85.127 L 31.769 85.127 C 30.031 85.127 28.88 83.74 29.2 82.031 L 36.912 40.928 C 37.232 39.22 38.904 37.833 40.642 37.833 L 54.352 37.833 L 56.126 29.403 L 33.543 29.403 C 31.805 29.403 30.073 30.777 29.678 32.47 L 16.026 90.933 C 15.63 92.626 16.721 94 18.459 94 L 250.317 94 C 252.055 94 253.267 92.603 253.022 90.882 L 244.682 32.343 C 244.437 30.623 243.418 28.077 242.408 26.663 L 237.196 19.366 C 236.185 17.951 233.956 16.722 232.221 16.622 L 34.831 5.268" fill="rgb(66,81,97)"/></g></g></svg>