<?xml version="1.0" standalone="no"?><!-- Generator: Gravit.io --><svg xmlns="http://www.w3.org/2000/svg" xmlns:xlink="http://www.w3.org/1999/xlink" style="isolation:isolate" viewBox="0 0 320 200" width="320" height="200"><defs><clipPath id="_clipPath_v0USQPrHHhROje99db6sIlZhhH4ORcj1"><rect width="320" height="200"/></clipPath></defs><g clip-path="url(#_clipPath_v0USQPrHHhROje99db6sIlZhhH4ORcj1)"><path d=" M 79.684 121.968 L 51.532 121.968 L 59.092 86.4 L 69.892 86.4 L 64.348 112.464 L 79.684 112.464 L 79.684 112.464 Q 83.5 112.464 84.508 107.784 L 84.508 107.784 L 88.828 87.48 L 88.828 87.48 Q 89.044 86.616 89.044 85.824 L 89.044 85.824 L 89.044 85.824 Q 89.044 82.8 85.948 82.8 L 85.948 82.8 L 59.812 82.8 L 61.828 73.224 L 89.98 73.224 L 89.98 73.224 Q 100.636 73.224 100.636 81.864 L 100.636 81.864 L 100.636 81.864 Q 100.636 83.664 100.204 85.68 L 100.204 85.68 L 95.092 109.512 L 95.092 109.512 Q 93.796 115.632 89.98 118.8 L 89.98 118.8 L 89.98 118.8 Q 86.164 121.968 79.684 121.968 L 79.684 121.968 Z  M 140.74 121.968 L 129.724 121.968 L 129.22 114.408 L 111.652 114.408 L 107.908 121.968 L 97.324 121.968 L 122.668 73.224 L 136.996 73.224 L 140.74 121.968 Z  M 128.86 106.344 L 127.348 83.016 L 115.54 106.344 L 128.86 106.344 Z  M 157.084 121.968 L 146.14 121.968 L 156.436 73.224 L 167.38 73.224 L 157.084 121.968 Z  M 200.86 121.968 L 173.284 121.968 L 173.284 121.968 Q 169.612 121.968 168.028 120.672 L 168.028 120.672 L 168.028 120.672 Q 166.444 119.376 166.444 116.64 L 166.444 116.64 L 166.444 116.64 Q 166.444 115.92 166.516 115.164 L 166.516 115.164 L 166.516 115.164 Q 166.588 114.408 166.804 113.472 L 166.804 113.472 L 173.5 81.72 L 173.5 81.72 Q 174.436 77.4 176.704 75.312 L 176.704 75.312 L 176.704 75.312 Q 178.972 73.224 183.58 73.224 L 183.58 73.224 L 211.012 73.224 L 208.996 82.944 L 186.964 82.944 L 186.964 82.944 Q 185.236 82.944 184.624 83.484 L 184.624 83.484 L 184.624 83.484 Q 184.012 84.024 183.652 85.68 L 183.652 85.68 L 178.54 109.44 L 178.54 109.44 Q 178.468 109.8 178.432 110.052 L 178.432 110.052 L 178.432 110.052 Q 178.396 110.304 178.396 110.592 L 178.396 110.592 L 178.396 110.592 Q 178.396 111.384 178.9 111.744 L 178.9 111.744 L 178.9 111.744 Q 179.404 112.104 180.772 112.104 L 180.772 112.104 L 202.948 112.104 L 200.86 121.968 Z  M 239.812 121.968 L 215.548 121.968 L 215.548 121.968 Q 211.876 121.968 210.256 120.672 L 210.256 120.672 L 210.256 120.672 Q 208.636 119.376 208.636 116.712 L 208.636 116.712 L 208.636 116.712 Q 208.636 115.344 209.068 113.472 L 209.068 113.472 L 215.764 81.72 L 215.764 81.72 Q 216.7 77.4 218.932 75.312 L 218.932 75.312 L 218.932 75.312 Q 221.164 73.224 225.844 73.224 L 225.844 73.224 L 250.108 73.224 L 250.108 73.224 Q 253.78 73.224 255.364 74.52 L 255.364 74.52 L 255.364 74.52 Q 256.948 75.816 256.948 78.552 L 256.948 78.552 L 256.948 78.552 Q 256.948 79.272 256.84 80.064 L 256.84 80.064 L 256.84 80.064 Q 256.732 80.856 256.588 81.72 L 256.588 81.72 L 249.892 113.472 L 249.892 113.472 Q 248.956 117.792 246.688 119.88 L 246.688 119.88 L 246.688 119.88 Q 244.42 121.968 239.812 121.968 L 239.812 121.968 Z  M 239.668 109.8 L 244.852 85.536 L 244.852 85.536 Q 244.924 85.176 244.96 84.888 L 244.96 84.888 L 244.96 84.888 Q 244.996 84.6 244.996 84.384 L 244.996 84.384 L 244.996 84.384 Q 244.996 82.728 242.476 82.728 L 242.476 82.728 L 228.868 82.728 L 228.868 82.728 Q 227.428 82.728 226.816 83.304 L 226.816 83.304 L 226.816 83.304 Q 226.204 83.88 225.844 85.536 L 225.844 85.536 L 220.66 109.8 L 220.66 109.8 Q 220.516 110.52 220.516 110.736 L 220.516 110.736 L 220.516 110.736 Q 220.516 112.248 222.604 112.248 L 222.604 112.248 L 236.212 112.248 L 236.212 112.248 Q 237.94 112.248 238.66 111.672 L 238.66 111.672 L 238.66 111.672 Q 239.38 111.096 239.668 109.8 L 239.668 109.8 Z " fill-rule="evenodd" fill="rgb(255,255,255)"/><path d=" M 263 65 L 266.707 69.237 C 268.525 71.314 270.281 75.223 270.628 77.96 L 277.197 129.832 C 277.475 132.022 275.908 133.8 273.7 133.8 L 41 133.8 C 38.792 133.8 37.345 132.041 37.77 129.875 L 46.23 86.75 C 46.655 84.584 48.792 82.825 51 82.825 L 60.15 82.825 L 62.166 73.225 L 43 73.225 C 40.792 73.225 38.592 74.97 38.09 77.12 L 22.91 142.105 C 22.408 144.255 23.792 146 26 146 L 288.933 146 C 291.141 146 292.621 144.235 292.236 142.061 L 280.698 76.939 C 280.313 74.765 278.958 71.542 277.675 69.745 L 272.325 62.255 C 271.042 60.458 268.211 58.897 266.007 58.77 L 44 46" fill="rgb(255,255,255)"/></g></svg>