<?xml version="1.0" standalone="no"?><!-- Generator: Gravit.io --><svg xmlns="http://www.w3.org/2000/svg" xmlns:xlink="http://www.w3.org/1999/xlink" style="isolation:isolate" viewBox="0 0 220 220" width="220" height="220"><defs><clipPath id="_clipPath_IUmvTAvlCLQWj93U2fYndKk0lhEI5JeF"><rect width="220" height="220"/></clipPath></defs><g clip-path="url(#_clipPath_IUmvTAvlCLQWj93U2fYndKk0lhEI5JeF)"><g style="isolation:isolate" id="BG"/><g style="isolation:isolate" id="Layer 0"/><g style="isolation:isolate" id="Layer 2"/><path d=" M 154.776 127.158 C 153.035 128.371 152.52 130.268 154 133 C 161.25 146.385 163.489 153.376 157.488 163.618 L 157.488 163.618 C 156.046 164.102 154.537 164.878 153 166 C 138.2 176.8 117.2 182.8 93 178 C 92.996 177.999 92.992 177.998 92.989 177.998 C 93.486 176.998 93.532 175.679 93 174 C 87.8 157.6 90.133 134.4 105 124 C 119.867 113.6 124.8 115.6 141 124 C 144.404 125.765 146.486 124.363 147.568 121.195 C 142.248 115.324 138.998 107.539 138.998 99 C 138.998 94.345 139.964 89.913 141.728 85.907 C 139.52 82.537 137.098 81.803 135 86 C 126.533 102.933 120.533 110.933 105 106 C 89.467 101.067 80.8 81.6 77 66 C 76.115 62.367 73.484 61.478 70.178 62.277 C 68.384 72.9 59.13 81 48 81 C 40.842 81 34.46 77.65 30.347 72.426 C 28.953 73.832 28.333 75.982 29 79 C 32.8 96.2 31.836 111.727 24.318 120.463 C 16.8 129.2 36.8 141.2 35 125 C 33.2 108.8 32.8 105.2 48 89 C 49.093 87.835 49.911 86.697 50.479 85.595 C 51.171 86.347 52.322 86.84 54 87 C 70.8 88.6 86.471 100.371 90 118 C 93.805 137.011 81.8 151.6 65 162 C 63.669 162.824 62.758 163.695 62.196 164.593 C 61.85 164.342 61.448 164.147 61 164 C 48.8 160 38.667 153.867 37 139 C 35.333 124.133 14 146.8 25 147 C 36 147.2 46.667 164.533 49 186 C 49.708 192.514 52.215 193.417 55.021 191.419 C 54.118 189.336 53.625 187.038 53.625 184.625 C 53.625 175.035 61.41 167.25 71 167.25 C 80.59 167.25 88.375 175.035 88.375 184.625 C 88.375 188.902 86.827 192.819 84.251 195.84 C 86.51 195.246 89.088 194.32 92 193 C 124.667 178.2 132 179.6 156 178 C 169.718 177.085 171.609 169.767 167.944 165.684 C 165.881 154.221 170.308 144.522 182 136 C 184.685 134.043 184.295 132.076 182.173 130.376 C 178.975 131.439 175.553 132.002 172 132.002 C 165.691 132.002 159.794 130.228 154.776 127.158 Z  M 60.403 39.749 C 61.195 38.323 62.962 37.828 66 39 L 66 39 C 80 44.4 83 47.1 99 39 C 115 30.9 110.5 58.9 101 51 C 91.5 43.1 85 48.4 75 56 C 73.52 57.125 71.973 57.426 70.459 57.133 C 70.023 49.869 66.134 43.53 60.403 39.749 Z  M 143.622 82.154 C 143.371 81.531 143.163 80.812 143 80 L 143 80 C 139 60.133 122.333 55.2 115 55 C 107.667 54.8 122 37.467 123 45 C 124 52.533 136.667 65.467 157 65 C 160.282 64.925 162.244 65.782 163.194 67.198 C 154.904 69.482 147.923 74.929 143.622 82.154 Z " fill-rule="evenodd" fill="rgb(45,62,80)" vector-effect="non-scaling-stroke" stroke-width="1" stroke="rgb(45,62,80)" stroke-linejoin="miter" stroke-linecap="square" stroke-miterlimit="3"/><path d=" M 130.996 99 C 130.996 76.369 149.369 57.996 172 57.996 C 194.631 57.996 213.004 76.369 213.004 99 C 213.004 121.631 194.631 140.004 172 140.004 C 149.369 140.004 130.996 121.631 130.996 99 M 15 134.309 C 15 127.134 20.825 121.309 28 121.309 C 35.175 121.309 41 127.134 41 134.309 C 41 141.484 35.175 147.309 28 147.309 C 20.825 147.309 15 141.484 15 134.309 M 95.5 43.496 C 95.5 35.493 101.997 28.996 110 28.996 C 118.003 28.996 124.5 35.493 124.5 43.496 C 124.5 51.499 118.003 57.996 110 57.996 C 101.997 57.996 95.5 51.499 95.5 43.496 M 148.342 171.75 C 148.342 164.989 153.831 159.5 160.592 159.5 C 167.353 159.5 172.842 164.989 172.842 171.75 C 172.842 178.511 167.353 184 160.592 184 C 153.831 184 148.342 178.511 148.342 171.75 M 46.5 184 C 46.5 170.478 57.478 159.5 71 159.5 C 84.522 159.5 95.5 170.478 95.5 184 C 95.5 197.522 84.522 208.5 71 208.5 C 57.478 208.5 46.5 197.522 46.5 184 M 19 58.996 C 19 42.438 32.443 28.996 49 28.996 C 65.557 28.996 79 42.438 79 58.996 C 79 75.553 65.557 88.996 49 88.996 C 32.443 88.996 19 75.553 19 58.996 M 130.996 99 Z  M 138.998 99 C 138.998 80.786 153.786 65.998 172 65.998 C 190.214 65.998 205.002 80.786 205.002 99 C 205.002 117.214 190.214 132.002 172 132.002 C 153.786 132.002 138.998 117.214 138.998 99 M 53.625 184.625 C 53.625 175.035 61.41 167.25 71 167.25 C 80.59 167.25 88.375 175.035 88.375 184.625 C 88.375 194.215 80.59 202 71 202 C 61.41 202 53.625 194.215 53.625 184.625 M 25.5 58.5 C 25.5 46.082 35.582 36 48 36 C 60.418 36 70.5 46.082 70.5 58.5 C 70.5 70.918 60.418 81 48 81 C 35.582 81 25.5 70.918 25.5 58.5 M 138.998 99 Z " fill-rule="evenodd" fill="rgb(45,62,80)" vector-effect="non-scaling-stroke" stroke-width="1" stroke="rgb(45,62,80)" stroke-linejoin="miter" stroke-linecap="square" stroke-miterlimit="3"/></g></svg>