<?xml version="1.0" standalone="no"?><!-- Generator: Gravit.io --><svg xmlns="http://www.w3.org/2000/svg" xmlns:xlink="http://www.w3.org/1999/xlink" style="isolation:isolate" viewBox="0 0 388 368" width="388" height="368"><defs><clipPath id="_clipPath_UXfWMJfLC9ZMl0mXSxZskXblzgMUQScB"><rect width="388" height="368"/></clipPath></defs><g clip-path="url(#_clipPath_UXfWMJfLC9ZMl0mXSxZskXblzgMUQScB)"><g style="isolation:isolate" id="Ethereum"><g style="isolation:isolate" id="BG"><path d=" M 100.883 231.002 L 138.683 252.502 L 100.883 306.002 L 6.683 177.002 L 100.883 231.002 Z " fill="rgb(135,193,255)"/><path d=" M 100.683 5.002 L 193.683 157.327 L 100.883 212.127 L 6.683 157.202 L 100.683 5.002 Z " fill="rgb(135,193,255)"/></g><g opacity="0.3" style="mix-blend-mode:multiply;"><path d=" M 100.883 115.002 L 193.683 157.202 L 100.883 212.002 L 6.683 157.202 L 100.883 115.002 Z " fill="rgb(60,60,61)"/></g><g style="isolation:isolate" id="Mesh"><g opacity="0.8" style="mix-blend-mode:multiply;"><path d=" M 100.883 115.252 L 100.883 5.002 L 193.683 157.202 L 100.883 115.252 Z " fill="rgb(60,60,61)"/></g><g opacity="0.45" style="mix-blend-mode:multiply;"><path d=" M 100.883 115.252 L 100.883 5.002 L 6.683 157.202 L 100.883 115.252 Z " fill="rgb(60,60,61)"/></g><g opacity="0.45" style="mix-blend-mode:multiply;"><path d=" M 6.683 177.002 L 100.883 231.002 L 100.883 306.002 L 6.683 177.002 Z " fill="rgb(60,60,61)"/></g><g opacity="0.8" style="mix-blend-mode:multiply;"><path d=" M 138.683 253.502 L 100.883 231.002 L 100.883 306.002 L 138.683 253.502 Z " fill="rgb(60,60,61)"/></g><g opacity="0.45" style="mix-blend-mode:multiply;"><path d=" M 100.883 115.252 L 100.883 212.002 L 6.683 157.202 L 100.883 115.252 Z " fill="rgb(60,60,61)"/></g><g opacity="0.8" style="mix-blend-mode:multiply;"><path d=" M 100.883 115.252 L 100.883 212.002 L 193.683 157.135 L 100.883 115.252 Z " fill="rgb(60,60,61)"/></g></g><g style="mix-blend-mode:multiply;" id="Gradient"><g opacity="0.6" style="mix-blend-mode:multiply;"><linearGradient id="_lgradient_143" x1="85.99137637145513%" y1="31.800259593219277%" x2="-106.89657776780355%" y2="50.62801908104439%"><stop offset="0%" stop-opacity="1" style="stop-color:rgb(255,255,255)"/><stop offset="100%" stop-opacity="1" style="stop-color:rgb(0,0,0)"/></linearGradient><path d=" M 100.883 212.002 L 100.883 5.002 L 193.683 157.202 L 100.883 212.002 Z " fill="url(#_lgradient_143)"/></g><g opacity="0.45" style="mix-blend-mode:multiply;"><linearGradient id="_lgradient_144" x1="99.78767176394392%" y1="72.53613017624133%" x2="8.881784197001252e-14%" y2="-4.440892098500626e-14%"><stop offset="0%" stop-opacity="1" style="stop-color:rgb(255,255,255)"/><stop offset="100%" stop-opacity="1" style="stop-color:rgb(0,0,0)"/></linearGradient><path d=" M 100.883 212.002 L 100.883 5.002 L 6.683 157.202 L 100.883 212.002 Z " fill="url(#_lgradient_144)"/></g><g opacity="0.45" style="mix-blend-mode:multiply;"><linearGradient id="_lgradient_145" x1="148.61993719815845%" y1="12.71317750600568%" x2="75.37153904683665%" y2="88.6821697540677%"><stop offset="0%" stop-opacity="1" style="stop-color:rgb(255,255,255)"/><stop offset="100%" stop-opacity="1" style="stop-color:rgb(0,0,0)"/></linearGradient><path d=" M 6.683 177.002 L 100.883 231.002 L 100.883 306.002 L 6.683 177.002 Z " fill="url(#_lgradient_145)"/></g><g opacity="0.6" style="mix-blend-mode:multiply;"><linearGradient id="_lgradient_146" x1="85.99138294852015%" y1="64.18604572305996%" x2="-86.42243283446294%" y2="30.077518591276892%"><stop offset="0%" stop-opacity="1" style="stop-color:rgb(255,255,255)"/><stop offset="100%" stop-opacity="1" style="stop-color:rgb(0,0,0)"/></linearGradient><path d=" M 139.683 254.502 L 100.883 231.002 L 100.883 306.002 L 139.683 254.502 Z " fill="url(#_lgradient_146)"/></g></g><g style="isolation:isolate" id="Outline"><g opacity="0.25" style="mix-blend-mode:soft-light;"><path d=" M 6.683 157.202 L 100.883 5.002 L 193.683 157.202 L 100.883 212.002 L 6.683 157.202 Z " fill="none" vector-effect="non-scaling-stroke" stroke-width="0.5" stroke="rgb(255,255,255)" stroke-linejoin="miter" stroke-linecap="square" stroke-miterlimit="3"/></g><g opacity="0.25" style="mix-blend-mode:soft-light;"><path d=" M 6.683 177.002 L 100.883 231.002 L 138.683 252.502 L 100.883 306.002 L 6.683 177.002 Z " fill="none" vector-effect="non-scaling-stroke" stroke-width="0.5" stroke="rgb(255,255,255)" stroke-linejoin="miter" stroke-linecap="square" stroke-miterlimit="3"/></g></g></g><g style="isolation:isolate" id="Ethereum"><g style="isolation:isolate" id="BG"><path d=" M 289.383 231.002 L 382.183 177.002 L 289.383 306.002 L 250.683 253.502 L 289.383 231.002 Z " fill="rgb(135,193,255)"/><path d=" M 289.183 5.002 L 382.183 157.327 L 289.383 212.127 L 195.183 157.202 L 289.183 5.002 Z " fill="rgb(135,193,255)"/></g><g opacity="0.3" style="mix-blend-mode:multiply;"><path d=" M 289.383 115.002 L 382.183 157.202 L 289.383 212.002 L 195.183 157.202 L 289.383 115.002 Z " fill="rgb(60,60,61)"/></g><g style="isolation:isolate" id="Mesh"><g opacity="0.8" style="mix-blend-mode:multiply;"><path d=" M 289.383 115.252 L 289.383 5.002 L 382.183 157.202 L 289.383 115.252 Z " fill="rgb(60,60,61)"/></g><g opacity="0.45" style="mix-blend-mode:multiply;"><path d=" M 289.383 115.252 L 289.383 5.002 L 195.183 157.202 L 289.383 115.252 Z " fill="rgb(60,60,61)"/></g><g opacity="0.45" style="mix-blend-mode:multiply;"><path d=" M 251.683 253.502 L 289.383 231.002 L 289.383 306.002 L 251.683 253.502 Z " fill="rgb(60,60,61)"/></g><g opacity="0.8" style="mix-blend-mode:multiply;"><path d=" M 382.183 177.002 L 289.383 231.002 L 289.383 306.002 L 382.183 177.002 Z " fill="rgb(60,60,61)"/></g><g opacity="0.45" style="mix-blend-mode:multiply;"><path d=" M 289.383 115.252 L 289.383 212.002 L 195.183 157.202 L 289.383 115.252 Z " fill="rgb(60,60,61)"/></g><g opacity="0.8" style="mix-blend-mode:multiply;"><path d=" M 289.383 115.252 L 289.383 212.002 L 382.183 157.135 L 289.383 115.252 Z " fill="rgb(60,60,61)"/></g></g><g style="mix-blend-mode:multiply;" id="Gradient"><g opacity="0.6" style="mix-blend-mode:multiply;"><linearGradient id="_lgradient_147" x1="85.99137637145513%" y1="31.800259593219277%" x2="-106.89657776780355%" y2="50.62801908104439%"><stop offset="0%" stop-opacity="1" style="stop-color:rgb(255,255,255)"/><stop offset="100%" stop-opacity="1" style="stop-color:rgb(0,0,0)"/></linearGradient><path d=" M 289.383 212.002 L 289.383 5.002 L 382.183 157.202 L 289.383 212.002 Z " fill="url(#_lgradient_147)"/></g><g opacity="0.45" style="mix-blend-mode:multiply;"><linearGradient id="_lgradient_148" x1="99.78767176394392%" y1="72.53613017624133%" x2="8.881784197001252e-14%" y2="-4.440892098500626e-14%"><stop offset="0%" stop-opacity="1" style="stop-color:rgb(255,255,255)"/><stop offset="100%" stop-opacity="1" style="stop-color:rgb(0,0,0)"/></linearGradient><path d=" M 289.383 212.002 L 289.383 5.002 L 195.183 157.202 L 289.383 212.002 Z " fill="url(#_lgradient_148)"/></g><g opacity="0.45" style="mix-blend-mode:multiply;"><linearGradient id="_lgradient_149" x1="148.61993719815845%" y1="12.71317750600568%" x2="75.37153904683665%" y2="88.6821697540677%"><stop offset="0%" stop-opacity="1" style="stop-color:rgb(255,255,255)"/><stop offset="100%" stop-opacity="1" style="stop-color:rgb(0,0,0)"/></linearGradient><path d=" M 251.683 253.502 L 289.383 231.002 L 289.383 306.002 L 251.683 253.502 Z " fill="url(#_lgradient_149)"/></g><g opacity="0.6" style="mix-blend-mode:multiply;"><linearGradient id="_lgradient_150" x1="85.99138294852015%" y1="64.18604572305996%" x2="-86.42243283446294%" y2="30.077518591276892%"><stop offset="0%" stop-opacity="1" style="stop-color:rgb(255,255,255)"/><stop offset="100%" stop-opacity="1" style="stop-color:rgb(0,0,0)"/></linearGradient><path d=" M 382.183 177.002 L 289.383 231.002 L 289.383 306.002 L 382.183 177.002 Z " fill="url(#_lgradient_150)"/></g></g><g style="isolation:isolate" id="Outline"><g opacity="0.25" style="mix-blend-mode:soft-light;"><path d=" M 195.183 157.202 L 289.383 5.002 L 382.183 157.202 L 289.383 212.002 L 195.183 157.202 Z " fill="none" vector-effect="non-scaling-stroke" stroke-width="0.5" stroke="rgb(255,255,255)" stroke-linejoin="miter" stroke-linecap="square" stroke-miterlimit="3"/></g><g opacity="0.25" style="mix-blend-mode:soft-light;"><path d=" M 251.683 253.502 L 289.383 231.002 L 382.183 177.002 L 289.383 306.002 L 251.683 253.502 Z " fill="none" vector-effect="non-scaling-stroke" stroke-width="0.5" stroke="rgb(255,255,255)" stroke-linejoin="miter" stroke-linecap="square" stroke-miterlimit="3"/></g></g></g><g style="isolation:isolate" id="Ethereum"><g style="isolation:isolate" id="BG"><path d=" M 195.883 286.502 L 288.683 232.502 L 195.883 361.502 L 101.683 232.502 L 195.883 286.502 Z " fill="rgb(135,193,255)"/><path d=" M 195.683 60.502 L 288.683 212.827 L 195.883 267.627 L 101.683 212.702 L 195.683 60.502 Z " fill="rgb(135,193,255)"/></g><g opacity="0.3" style="mix-blend-mode:multiply;"><path d=" M 195.883 170.502 L 288.683 212.702 L 195.883 267.502 L 101.683 212.702 L 195.883 170.502 Z " fill="rgb(60,60,61)"/></g><g style="isolation:isolate" id="Mesh"><g opacity="0.8" style="mix-blend-mode:multiply;"><path d=" M 195.883 170.752 L 195.883 60.502 L 288.683 212.702 L 195.883 170.752 Z " fill="rgb(60,60,61)"/></g><g opacity="0.45" style="mix-blend-mode:multiply;"><path d=" M 195.883 170.752 L 195.883 60.502 L 101.683 212.702 L 195.883 170.752 Z " fill="rgb(60,60,61)"/></g><g opacity="0.45" style="mix-blend-mode:multiply;"><path d=" M 101.683 232.502 L 195.883 286.502 L 195.883 361.502 L 101.683 232.502 Z " fill="rgb(60,60,61)"/></g><g opacity="0.8" style="mix-blend-mode:multiply;"><path d=" M 288.683 232.502 L 195.883 286.502 L 195.883 361.502 L 288.683 232.502 Z " fill="rgb(60,60,61)"/></g><g opacity="0.45" style="mix-blend-mode:multiply;"><path d=" M 195.883 170.752 L 195.883 267.502 L 101.683 212.702 L 195.883 170.752 Z " fill="rgb(60,60,61)"/></g><g opacity="0.8" style="mix-blend-mode:multiply;"><path d=" M 195.883 170.752 L 195.883 267.502 L 288.683 212.635 L 195.883 170.752 Z " fill="rgb(60,60,61)"/></g></g><g style="mix-blend-mode:multiply;" id="Gradient"><g opacity="0.6" style="mix-blend-mode:multiply;"><linearGradient id="_lgradient_151" x1="85.99137637145513%" y1="31.800259593219277%" x2="-106.89657776780355%" y2="50.62801908104439%"><stop offset="0%" stop-opacity="1" style="stop-color:rgb(255,255,255)"/><stop offset="100%" stop-opacity="1" style="stop-color:rgb(0,0,0)"/></linearGradient><path d=" M 195.883 267.502 L 195.883 60.502 L 288.683 212.702 L 195.883 267.502 Z " fill="url(#_lgradient_151)"/></g><g opacity="0.45" style="mix-blend-mode:multiply;"><linearGradient id="_lgradient_152" x1="99.78767176394392%" y1="72.53613017624133%" x2="8.881784197001252e-14%" y2="-4.440892098500626e-14%"><stop offset="0%" stop-opacity="1" style="stop-color:rgb(255,255,255)"/><stop offset="100%" stop-opacity="1" style="stop-color:rgb(0,0,0)"/></linearGradient><path d=" M 195.883 267.502 L 195.883 60.502 L 101.683 212.702 L 195.883 267.502 Z " fill="url(#_lgradient_152)"/></g><g opacity="0.45" style="mix-blend-mode:multiply;"><linearGradient id="_lgradient_153" x1="148.61993719815845%" y1="12.71317750600568%" x2="75.37153904683665%" y2="88.6821697540677%"><stop offset="0%" stop-opacity="1" style="stop-color:rgb(255,255,255)"/><stop offset="100%" stop-opacity="1" style="stop-color:rgb(0,0,0)"/></linearGradient><path d=" M 101.683 232.502 L 195.883 286.502 L 195.883 361.502 L 101.683 232.502 Z " fill="url(#_lgradient_153)"/></g><g opacity="0.6" style="mix-blend-mode:multiply;"><linearGradient id="_lgradient_154" x1="85.99138294852015%" y1="64.18604572305996%" x2="-86.42243283446294%" y2="30.077518591276892%"><stop offset="0%" stop-opacity="1" style="stop-color:rgb(255,255,255)"/><stop offset="100%" stop-opacity="1" style="stop-color:rgb(0,0,0)"/></linearGradient><path d=" M 288.683 232.502 L 195.883 286.502 L 195.883 361.502 L 288.683 232.502 Z " fill="url(#_lgradient_154)"/></g></g><g style="isolation:isolate" id="Outline"><g opacity="0.25" style="mix-blend-mode:soft-light;"><path d=" M 101.683 212.702 L 195.883 60.502 L 288.683 212.702 L 195.883 267.502 L 101.683 212.702 Z " fill="none" vector-effect="non-scaling-stroke" stroke-width="0.5" stroke="rgb(255,255,255)" stroke-linejoin="miter" stroke-linecap="square" stroke-miterlimit="3"/></g><g opacity="0.25" style="mix-blend-mode:soft-light;"><path d=" M 101.683 232.502 L 195.883 286.502 L 288.683 232.502 L 195.883 361.502 L 101.683 232.502 Z " fill="none" vector-effect="non-scaling-stroke" stroke-width="0.5" stroke="rgb(255,255,255)" stroke-linejoin="miter" stroke-linecap="square" stroke-miterlimit="3"/></g></g></g><g style="isolation:isolate" id="Outline"><defs><filter id="4zbRuvpfqZyJuOIX9gFLBE253uDNzQ71" x="-200%" y="-200%" width="400%" height="400%"><feOffset xmlns="http://www.w3.org/2000/svg" in="SourceAlpha" result="offOut" dx="0" dy="0"/><feGaussianBlur xmlns="http://www.w3.org/2000/svg" in="offOut" result="blurOut" stdDeviation="2.5"/><feComponentTransfer xmlns="http://www.w3.org/2000/svg" in="blurOut" result="opacOut"><feFuncA xmlns="http://www.w3.org/2000/svg" type="table" tableValues="0 0.5"/></feComponentTransfer><feBlend xmlns="http://www.w3.org/2000/svg" in="SourceGraphic" in2="opacOut" mode="normal"/></filter></defs><g filter="url(#4zbRuvpfqZyJuOIX9gFLBE253uDNzQ71)"><linearGradient id="_lgradient_155" x1="50.03994673768308%" y1="-0.8000000000000007%" x2="50.43941411451396%" y2="101.4857142857143%"><stop offset="0%" stop-opacity="1" style="stop-color:rgb(255,255,255)"/><stop offset="100%" stop-opacity="1" style="stop-color:rgb(210,210,210)"/></linearGradient><path d=" M 7.742 155.506 L 100.624 6.699 C 101.208 5.762 102.148 5.768 102.722 6.711 L 163.643 106.856 C 164.217 107.799 165.171 107.813 165.772 106.887 L 194.794 62.18 C 195.395 61.254 196.355 61.264 196.937 62.202 L 224.629 106.865 C 225.21 107.803 226.148 107.799 226.722 106.856 L 287.643 6.711 C 288.217 5.768 289.152 5.766 289.729 6.706 L 381.136 155.498 C 381.713 156.439 381.411 157.659 380.462 158.221 L 197.604 266.483 C 196.654 267.046 195.108 267.051 194.155 266.495 L 8.41 158.209 C 7.457 157.654 7.157 156.442 7.742 155.506 Z " fill="none" vector-effect="non-scaling-stroke" stroke-width="5" stroke="url(#_lgradient_155)" stroke-linejoin="miter" stroke-linecap="square" stroke-miterlimit="3"/></g><defs><filter id="kYZiGBlE9yiQgXKQqC8hepWi3wTZ8LyM" x="-200%" y="-200%" width="400%" height="400%"><feOffset xmlns="http://www.w3.org/2000/svg" in="SourceAlpha" result="offOut" dx="0" dy="0"/><feGaussianBlur xmlns="http://www.w3.org/2000/svg" in="offOut" result="blurOut" stdDeviation="2.5"/><feComponentTransfer xmlns="http://www.w3.org/2000/svg" in="blurOut" result="opacOut"><feFuncA xmlns="http://www.w3.org/2000/svg" type="table" tableValues="0 0.5"/></feComponentTransfer><feBlend xmlns="http://www.w3.org/2000/svg" in="SourceGraphic" in2="opacOut" mode="normal"/></filter></defs><g filter="url(#kYZiGBlE9yiQgXKQqC8hepWi3wTZ8LyM)"><linearGradient id="_lgradient_156" x1="50.03994673768308%" y1="-1.1382113821138296%" x2="50.17310252996005%" y2="102.92682926829269%"><stop offset="0%" stop-opacity="1" style="stop-color:rgb(234,234,234)"/><stop offset="100%" stop-opacity="1" style="stop-color:rgb(201,201,201)"/></linearGradient><path d=" M 7.865 178.615 L 100.1 304.389 C 100.753 305.279 101.808 305.276 102.455 304.382 L 126.51 271.123 C 127.157 270.228 128.216 270.222 128.874 271.109 L 194.692 359.895 C 195.349 360.782 196.409 360.777 197.058 359.884 L 261.507 271.121 C 262.156 270.227 263.203 270.232 263.843 271.131 L 287.522 304.373 C 288.163 305.272 289.209 305.277 289.856 304.383 L 381.009 178.622 C 381.657 177.728 381.41 177.456 380.458 178.016 L 197.607 285.489 C 196.655 286.048 195.107 286.053 194.152 285.5 L 8.414 178.004 C 7.458 177.451 7.213 177.725 7.865 178.615 Z " fill="none" vector-effect="non-scaling-stroke" stroke-width="5" stroke="url(#_lgradient_156)" stroke-linejoin="miter" stroke-linecap="square" stroke-miterlimit="3"/></g></g><g style="isolation:isolate" id="Outline"><defs><filter id="Sr25LLgeUkh78btGeentr2l0AGtrKuQY" x="-200%" y="-200%" width="400%" height="400%"><feGaussianBlur xmlns="http://www.w3.org/2000/svg" stdDeviation="0.21468045314195142"/></filter></defs><g filter="url(#Sr25LLgeUkh78btGeentr2l0AGtrKuQY)"><linearGradient id="_lgradient_157" x1="50.03994673768308%" y1="-0.8000000000000007%" x2="50.43941411451396%" y2="101.4857142857143%"><stop offset="0%" stop-opacity="1" style="stop-color:rgb(255,255,255)"/><stop offset="100%" stop-opacity="1" style="stop-color:rgb(244,244,244)"/></linearGradient><path d=" M 7.742 155.506 L 100.624 6.699 C 101.208 5.762 102.148 5.768 102.722 6.711 L 163.643 106.856 C 164.217 107.799 165.171 107.813 165.772 106.887 L 194.794 62.18 C 195.395 61.254 196.355 61.264 196.937 62.202 L 224.629 106.865 C 225.21 107.803 226.148 107.799 226.722 106.856 L 287.643 6.711 C 288.217 5.768 289.152 5.766 289.729 6.706 L 381.136 155.498 C 381.713 156.439 381.411 157.659 380.462 158.221 L 197.604 266.483 C 196.654 267.046 195.108 267.051 194.155 266.495 L 8.41 158.209 C 7.457 157.654 7.157 156.442 7.742 155.506 Z " fill="none" vector-effect="non-scaling-stroke" stroke-width="2.5" stroke="url(#_lgradient_157)" stroke-linejoin="miter" stroke-linecap="square" stroke-miterlimit="3"/></g><defs><filter id="rZa3Wut6s2KLLqoG0qFAvRcKAFi8H2Qg" x="-200%" y="-200%" width="400%" height="400%"><feGaussianBlur xmlns="http://www.w3.org/2000/svg" stdDeviation="0.21468045314195142"/></filter></defs><g filter="url(#rZa3Wut6s2KLLqoG0qFAvRcKAFi8H2Qg)"><linearGradient id="_lgradient_158" x1="50.03994673768308%" y1="-1.1382113821138296%" x2="50.17310252996005%" y2="102.92682926829269%"><stop offset="0%" stop-opacity="1" style="stop-color:rgb(255,255,255)"/><stop offset="100%" stop-opacity="1" style="stop-color:rgb(242,242,242)"/></linearGradient><path d=" M 7.865 178.615 L 100.1 304.389 C 100.753 305.279 101.808 305.276 102.455 304.382 L 126.51 271.123 C 127.157 270.228 128.216 270.222 128.874 271.109 L 194.692 359.895 C 195.349 360.782 196.409 360.777 197.058 359.884 L 261.507 271.121 C 262.156 270.227 263.203 270.232 263.843 271.131 L 287.522 304.373 C 288.163 305.272 289.209 305.277 289.856 304.383 L 381.009 178.622 C 381.657 177.728 381.41 177.456 380.458 178.016 L 197.607 285.489 C 196.655 286.048 195.107 286.053 194.152 285.5 L 8.414 178.004 C 7.458 177.451 7.213 177.725 7.865 178.615 Z " fill="none" vector-effect="non-scaling-stroke" stroke-width="2.5" stroke="url(#_lgradient_158)" stroke-linejoin="miter" stroke-linecap="square" stroke-miterlimit="3"/></g></g></g></svg>