<?xml version="1.0" standalone="no"?><!-- Generator: Gravit.io --><svg xmlns="http://www.w3.org/2000/svg" xmlns:xlink="http://www.w3.org/1999/xlink" style="isolation:isolate" viewBox="0 0 320 220" width="320" height="220"><defs><clipPath id="_clipPath_0Rfu2D0hozVFYEP3Dj5GNsrqMfNnBHQH"><rect width="320" height="220"/></clipPath></defs><g clip-path="url(#_clipPath_0Rfu2D0hozVFYEP3Dj5GNsrqMfNnBHQH)"><g style="isolation:isolate" id="Platform"><path d="M 20.14 12.5 L 297.86 12.5 C 302.077 12.5 305.5 15.923 305.5 20.14 L 305.5 195.86 C 305.5 200.077 302.077 203.5 297.86 203.5 L 20.14 203.5 C 15.923 203.5 12.5 200.077 12.5 195.86 L 12.5 20.14 C 12.5 15.923 15.923 12.5 20.14 12.5 Z" style="fill:none;stroke:#FFFFFF;stroke-width:2;stroke-linecap:square;stroke-miterlimit:3;"/><line x1="13.067" y1="42" x2="303.8" y2="42" vector-effect="non-scaling-stroke" stroke-width="2" stroke="rgb(255,255,255)" stroke-linejoin="miter" stroke-linecap="square" stroke-miterlimit="3"/><g id="Button"><path d="M 109.98 18 L 118.02 18 C 120.493 18 122.5 20.007 122.5 22.48 L 122.5 27.52 C 122.5 29.993 120.493 32 118.02 32 L 109.98 32 C 107.507 32 105.5 29.993 105.5 27.52 L 105.5 22.48 C 105.5 20.007 107.507 18 109.98 18 Z" style="stroke:none;fill:#FFFFFF;stroke-linecap:square;stroke-miterlimit:3;"/><path d="M 109.98 18 L 118.02 18 C 120.493 18 122.5 20.007 122.5 22.48 L 122.5 27.52 C 122.5 29.993 120.493 32 118.02 32 L 109.98 32 C 107.507 32 105.5 29.993 105.5 27.52 L 105.5 22.48 C 105.5 20.007 107.507 18 109.98 18 Z" style="fill:none;stroke:#FFFFFF;stroke-width:1;stroke-linecap:square;stroke-miterlimit:3;"/><line x1="105.5" y1="36" x2="122.5" y2="36" vector-effect="non-scaling-stroke" stroke-width="1" stroke="rgb(255,255,255)" stroke-linejoin="miter" stroke-linecap="square" stroke-miterlimit="3"/><rect x="100.5" y="12.5" width="27" height="29.5" transform="matrix(1,0,0,1,0,0)" fill="none" vector-effect="non-scaling-stroke" stroke-width="1" stroke="rgb(255,255,255)" stroke-linejoin="miter" stroke-linecap="square" stroke-miterlimit="3"/></g><g id="Button"><path d="M 137.48 18 L 145.52 18 C 147.993 18 150 20.007 150 22.48 L 150 27.52 C 150 29.993 147.993 32 145.52 32 L 137.48 32 C 135.007 32 133 29.993 133 27.52 L 133 22.48 C 133 20.007 135.007 18 137.48 18 Z" style="stroke:none;fill:#FFFFFF;stroke-linecap:square;stroke-miterlimit:3;"/><path d="M 137.48 18 L 145.52 18 C 147.993 18 150 20.007 150 22.48 L 150 27.52 C 150 29.993 147.993 32 145.52 32 L 137.48 32 C 135.007 32 133 29.993 133 27.52 L 133 22.48 C 133 20.007 135.007 18 137.48 18 Z" style="fill:none;stroke:#FFFFFF;stroke-width:1;stroke-linecap:square;stroke-miterlimit:3;"/><line x1="133" y1="36" x2="150" y2="36" vector-effect="non-scaling-stroke" stroke-width="1" stroke="rgb(255,255,255)" stroke-linejoin="miter" stroke-linecap="square" stroke-miterlimit="3"/><rect x="128" y="12.5" width="27" height="29.5" transform="matrix(1,0,0,1,0,0)" fill="none" vector-effect="non-scaling-stroke" stroke-width="1" stroke="rgb(255,255,255)" stroke-linejoin="miter" stroke-linecap="square" stroke-miterlimit="3"/></g><g id="Button"><path d="M 164.98 18 L 173.02 18 C 175.493 18 177.5 20.007 177.5 22.48 L 177.5 27.52 C 177.5 29.993 175.493 32 173.02 32 L 164.98 32 C 162.507 32 160.5 29.993 160.5 27.52 L 160.5 22.48 C 160.5 20.007 162.507 18 164.98 18 Z" style="stroke:none;fill:#FFFFFF;stroke-linecap:square;stroke-miterlimit:3;"/><path d="M 164.98 18 L 173.02 18 C 175.493 18 177.5 20.007 177.5 22.48 L 177.5 27.52 C 177.5 29.993 175.493 32 173.02 32 L 164.98 32 C 162.507 32 160.5 29.993 160.5 27.52 L 160.5 22.48 C 160.5 20.007 162.507 18 164.98 18 Z" style="fill:none;stroke:#FFFFFF;stroke-width:1;stroke-linecap:square;stroke-miterlimit:3;"/><line x1="160.5" y1="36" x2="177.5" y2="36" vector-effect="non-scaling-stroke" stroke-width="1" stroke="rgb(255,255,255)" stroke-linejoin="miter" stroke-linecap="square" stroke-miterlimit="3"/><rect x="155.5" y="12.5" width="27" height="29.5" transform="matrix(1,0,0,1,0,0)" fill="none" vector-effect="non-scaling-stroke" stroke-width="1" stroke="rgb(255,255,255)" stroke-linejoin="miter" stroke-linecap="square" stroke-miterlimit="3"/></g><g id="Button"><path d="M 192.48 18 L 200.52 18 C 202.993 18 205 20.007 205 22.48 L 205 27.52 C 205 29.993 202.993 32 200.52 32 L 192.48 32 C 190.007 32 188 29.993 188 27.52 L 188 22.48 C 188 20.007 190.007 18 192.48 18 Z" style="stroke:none;fill:#FFFFFF;stroke-linecap:square;stroke-miterlimit:3;"/><path d="M 192.48 18 L 200.52 18 C 202.993 18 205 20.007 205 22.48 L 205 27.52 C 205 29.993 202.993 32 200.52 32 L 192.48 32 C 190.007 32 188 29.993 188 27.52 L 188 22.48 C 188 20.007 190.007 18 192.48 18 Z" style="fill:none;stroke:#FFFFFF;stroke-width:1;stroke-linecap:square;stroke-miterlimit:3;"/><line x1="188" y1="36" x2="205" y2="36" vector-effect="non-scaling-stroke" stroke-width="1" stroke="rgb(255,255,255)" stroke-linejoin="miter" stroke-linecap="square" stroke-miterlimit="3"/><rect x="183" y="12.5" width="27" height="29.5" transform="matrix(1,0,0,1,0,0)" fill="none" vector-effect="non-scaling-stroke" stroke-width="1" stroke="rgb(255,255,255)" stroke-linejoin="miter" stroke-linecap="square" stroke-miterlimit="3"/></g><g id="Button"><path d="M 219.98 18 L 228.02 18 C 230.493 18 232.5 20.007 232.5 22.48 L 232.5 27.52 C 232.5 29.993 230.493 32 228.02 32 L 219.98 32 C 217.507 32 215.5 29.993 215.5 27.52 L 215.5 22.48 C 215.5 20.007 217.507 18 219.98 18 Z" style="stroke:none;fill:#FFFFFF;stroke-linecap:square;stroke-miterlimit:3;"/><path d="M 219.98 18 L 228.02 18 C 230.493 18 232.5 20.007 232.5 22.48 L 232.5 27.52 C 232.5 29.993 230.493 32 228.02 32 L 219.98 32 C 217.507 32 215.5 29.993 215.5 27.52 L 215.5 22.48 C 215.5 20.007 217.507 18 219.98 18 Z" style="fill:none;stroke:#FFFFFF;stroke-width:1;stroke-linecap:square;stroke-miterlimit:3;"/><line x1="215.5" y1="36" x2="232.5" y2="36" vector-effect="non-scaling-stroke" stroke-width="1" stroke="rgb(255,255,255)" stroke-linejoin="miter" stroke-linecap="square" stroke-miterlimit="3"/><rect x="210.5" y="12.5" width="27" height="29.5" transform="matrix(1,0,0,1,0,0)" fill="none" vector-effect="non-scaling-stroke" stroke-width="1" stroke="rgb(255,255,255)" stroke-linejoin="miter" stroke-linecap="square" stroke-miterlimit="3"/></g><line x1="12.5" y1="180" x2="305.5" y2="180" vector-effect="non-scaling-stroke" stroke-width="2" stroke="rgb(255,255,255)" stroke-linejoin="miter" stroke-linecap="square" stroke-miterlimit="3"/><line x1="238" y1="27" x2="306" y2="27" vector-effect="non-scaling-stroke" stroke-width="1" stroke="rgb(255,255,255)" stroke-linejoin="miter" stroke-linecap="square" stroke-miterlimit="3"/><path d="M 108.168 184 L 214.832 184 C 216.304 184 217.5 185.196 217.5 186.668 L 217.5 195.332 C 217.5 196.804 216.304 198 214.832 198 L 108.168 198 C 106.696 198 105.5 196.804 105.5 195.332 L 105.5 186.668 C 105.5 185.196 106.696 184 108.168 184 Z" style="fill:none;stroke:#FFFFFF;stroke-width:1;stroke-linecap:square;stroke-miterlimit:3;"/><line x1="19.5" y1="187.5" x2="68.5" y2="187.5" vector-effect="non-scaling-stroke" stroke-width="1" stroke="rgb(255,255,255)" stroke-linejoin="miter" stroke-linecap="square" stroke-miterlimit="3"/><line x1="19.5" y1="194.5" x2="80.5" y2="194.5" vector-effect="non-scaling-stroke" stroke-width="1" stroke="rgb(255,255,255)" stroke-linejoin="miter" stroke-linecap="square" stroke-miterlimit="3"/><g id="LeftPanel"><g id="Categories"><g id="Category1"><rect x="13" y="52" width="87.5" height="12" transform="matrix(1,0,0,1,0,0)" fill="none" vector-effect="non-scaling-stroke" stroke-width="1" stroke="rgb(255,255,255)" stroke-linejoin="miter" stroke-linecap="square" stroke-miterlimit="3"/><path d="M 18.02 55 L 23.48 55 C 24.043 55 24.5 55.457 24.5 56.02 L 24.5 59.98 C 24.5 60.543 24.043 61 23.48 61 L 18.02 61 C 17.457 61 17 60.543 17 59.98 L 17 56.02 C 17 55.457 17.457 55 18.02 55 Z" style="stroke:none;fill:#FFFFFF;stroke-linecap:square;stroke-miterlimit:3;"/><path d="M 18.02 55 L 23.48 55 C 24.043 55 24.5 55.457 24.5 56.02 L 24.5 59.98 C 24.5 60.543 24.043 61 23.48 61 L 18.02 61 C 17.457 61 17 60.543 17 59.98 L 17 56.02 C 17 55.457 17.457 55 18.02 55 Z" style="fill:none;stroke:#FFFFFF;stroke-width:1;stroke-linecap:square;stroke-miterlimit:3;"/><line x1="29.5" y1="58" x2="74" y2="58" vector-effect="non-scaling-stroke" stroke-width="1" stroke="rgb(255,255,255)" stroke-linejoin="miter" stroke-linecap="square" stroke-miterlimit="3"/><path d="M 86.207 55 L 95.793 55 C 97.563 55 99 56.344 99 58 L 99 58 C 99 59.656 97.563 61 95.793 61 L 86.207 61 C 84.437 61 83 59.656 83 58 L 83 58 C 83 56.344 84.437 55 86.207 55 Z" style="fill:none;stroke:#FFFFFF;stroke-width:1;stroke-linecap:square;stroke-miterlimit:3;"/><path d=" M 96.931 51.95 Q 99.072 52.251 100.5 51.95 L 100.5 63.975 Q 92.648 64.025 89 63.975 C 93.441 61.77 96.812 58.013 96.931 51.95 Z " fill="rgb(255,255,255)" vector-effect="non-scaling-stroke" stroke-width="1" stroke="rgb(255,255,255)" stroke-linejoin="miter" stroke-linecap="square" stroke-miterlimit="3"/></g><g id="Category2"><rect x="13" y="64" width="87.5" height="12" transform="matrix(1,0,0,1,0,0)" fill="none" vector-effect="non-scaling-stroke" stroke-width="1" stroke="rgb(255,255,255)" stroke-linejoin="miter" stroke-linecap="square" stroke-miterlimit="3"/><path d="M 18.02 67 L 23.48 67 C 24.043 67 24.5 67.457 24.5 68.02 L 24.5 71.98 C 24.5 72.543 24.043 73 23.48 73 L 18.02 73 C 17.457 73 17 72.543 17 71.98 L 17 68.02 C 17 67.457 17.457 67 18.02 67 Z" style="stroke:none;fill:#FFFFFF;stroke-linecap:square;stroke-miterlimit:3;"/><path d="M 18.02 67 L 23.48 67 C 24.043 67 24.5 67.457 24.5 68.02 L 24.5 71.98 C 24.5 72.543 24.043 73 23.48 73 L 18.02 73 C 17.457 73 17 72.543 17 71.98 L 17 68.02 C 17 67.457 17.457 67 18.02 67 Z" style="fill:none;stroke:#FFFFFF;stroke-width:1;stroke-linecap:square;stroke-miterlimit:3;"/><line x1="29.5" y1="70" x2="78" y2="70" vector-effect="non-scaling-stroke" stroke-width="1" stroke="rgb(255,255,255)" stroke-linejoin="miter" stroke-linecap="square" stroke-miterlimit="3"/><path d="M 86.207 67 L 95.793 67 C 97.563 67 99 68.344 99 70 L 99 70 C 99 71.656 97.563 73 95.793 73 L 86.207 73 C 84.437 73 83 71.656 83 70 L 83 70 C 83 68.344 84.437 67 86.207 67 Z" style="fill:none;stroke:#FFFFFF;stroke-width:1;stroke-linecap:square;stroke-miterlimit:3;"/><path d=" M 96.931 63.95 Q 99.072 64.251 100.5 63.95 L 100.5 75.975 Q 92.648 76.025 89 75.975 C 93.441 73.77 96.812 70.013 96.931 63.95 Z " fill="rgb(255,255,255)" vector-effect="non-scaling-stroke" stroke-width="1" stroke="rgb(255,255,255)" stroke-linejoin="miter" stroke-linecap="square" stroke-miterlimit="3"/></g><g id="Category3"><rect x="13" y="76" width="87.5" height="12" transform="matrix(1,0,0,1,0,0)" fill="none" vector-effect="non-scaling-stroke" stroke-width="1" stroke="rgb(255,255,255)" stroke-linejoin="miter" stroke-linecap="square" stroke-miterlimit="3"/><path d="M 18.02 79 L 23.48 79 C 24.043 79 24.5 79.457 24.5 80.02 L 24.5 83.98 C 24.5 84.543 24.043 85 23.48 85 L 18.02 85 C 17.457 85 17 84.543 17 83.98 L 17 80.02 C 17 79.457 17.457 79 18.02 79 Z" style="stroke:none;fill:#FFFFFF;stroke-linecap:square;stroke-miterlimit:3;"/><path d="M 18.02 79 L 23.48 79 C 24.043 79 24.5 79.457 24.5 80.02 L 24.5 83.98 C 24.5 84.543 24.043 85 23.48 85 L 18.02 85 C 17.457 85 17 84.543 17 83.98 L 17 80.02 C 17 79.457 17.457 79 18.02 79 Z" style="fill:none;stroke:#FFFFFF;stroke-width:1;stroke-linecap:square;stroke-miterlimit:3;"/><line x1="29.5" y1="82" x2="68" y2="82" vector-effect="non-scaling-stroke" stroke-width="1" stroke="rgb(255,255,255)" stroke-linejoin="miter" stroke-linecap="square" stroke-miterlimit="3"/><path d="M 86.207 79 L 95.793 79 C 97.563 79 99 80.344 99 82 L 99 82 C 99 83.656 97.563 85 95.793 85 L 86.207 85 C 84.437 85 83 83.656 83 82 L 83 82 C 83 80.344 84.437 79 86.207 79 Z" style="fill:none;stroke:#FFFFFF;stroke-width:1;stroke-linecap:square;stroke-miterlimit:3;"/><path d=" M 96.931 75.95 Q 99.072 76.251 100.5 75.95 L 100.5 87.975 Q 92.648 88.025 89 87.975 C 93.441 85.77 96.812 82.013 96.931 75.95 Z " fill="rgb(255,255,255)" vector-effect="non-scaling-stroke" stroke-width="1" stroke="rgb(255,255,255)" stroke-linejoin="miter" stroke-linecap="square" stroke-miterlimit="3"/></g><g id="Category4"><rect x="13" y="88" width="87.5" height="12" transform="matrix(1,0,0,1,0,0)" fill="none" vector-effect="non-scaling-stroke" stroke-width="1" stroke="rgb(255,255,255)" stroke-linejoin="miter" stroke-linecap="square" stroke-miterlimit="3"/><path d="M 18.02 91 L 23.48 91 C 24.043 91 24.5 91.457 24.5 92.02 L 24.5 95.98 C 24.5 96.543 24.043 97 23.48 97 L 18.02 97 C 17.457 97 17 96.543 17 95.98 L 17 92.02 C 17 91.457 17.457 91 18.02 91 Z" style="stroke:none;fill:#FFFFFF;stroke-linecap:square;stroke-miterlimit:3;"/><path d="M 18.02 91 L 23.48 91 C 24.043 91 24.5 91.457 24.5 92.02 L 24.5 95.98 C 24.5 96.543 24.043 97 23.48 97 L 18.02 97 C 17.457 97 17 96.543 17 95.98 L 17 92.02 C 17 91.457 17.457 91 18.02 91 Z" style="fill:none;stroke:#FFFFFF;stroke-width:1;stroke-linecap:square;stroke-miterlimit:3;"/><line x1="29.5" y1="94" x2="77" y2="94" vector-effect="non-scaling-stroke" stroke-width="1" stroke="rgb(255,255,255)" stroke-linejoin="miter" stroke-linecap="square" stroke-miterlimit="3"/><path d="M 86.207 91 L 95.793 91 C 97.563 91 99 92.344 99 94 L 99 94 C 99 95.656 97.563 97 95.793 97 L 86.207 97 C 84.437 97 83 95.656 83 94 L 83 94 C 83 92.344 84.437 91 86.207 91 Z" style="fill:none;stroke:#FFFFFF;stroke-width:1;stroke-linecap:square;stroke-miterlimit:3;"/><path d=" M 96.931 87.95 Q 99.072 88.251 100.5 87.95 L 100.5 99.975 Q 92.648 100.025 89 99.975 C 93.441 97.77 96.812 94.013 96.931 87.95 Z " fill="rgb(255,255,255)" vector-effect="non-scaling-stroke" stroke-width="1" stroke="rgb(255,255,255)" stroke-linejoin="miter" stroke-linecap="square" stroke-miterlimit="3"/></g><g id="Category5"><rect x="13" y="100" width="87.5" height="12" transform="matrix(1,0,0,1,0,0)" fill="none" vector-effect="non-scaling-stroke" stroke-width="1" stroke="rgb(255,255,255)" stroke-linejoin="miter" stroke-linecap="square" stroke-miterlimit="3"/><path d="M 18.02 103 L 23.48 103 C 24.043 103 24.5 103.457 24.5 104.02 L 24.5 107.98 C 24.5 108.543 24.043 109 23.48 109 L 18.02 109 C 17.457 109 17 108.543 17 107.98 L 17 104.02 C 17 103.457 17.457 103 18.02 103 Z" style="stroke:none;fill:#FFFFFF;stroke-linecap:square;stroke-miterlimit:3;"/><path d="M 18.02 103 L 23.48 103 C 24.043 103 24.5 103.457 24.5 104.02 L 24.5 107.98 C 24.5 108.543 24.043 109 23.48 109 L 18.02 109 C 17.457 109 17 108.543 17 107.98 L 17 104.02 C 17 103.457 17.457 103 18.02 103 Z" style="fill:none;stroke:#FFFFFF;stroke-width:1;stroke-linecap:square;stroke-miterlimit:3;"/><line x1="29.5" y1="106" x2="73" y2="106" vector-effect="non-scaling-stroke" stroke-width="1" stroke="rgb(255,255,255)" stroke-linejoin="miter" stroke-linecap="square" stroke-miterlimit="3"/><path d="M 86.207 103 L 95.793 103 C 97.563 103 99 104.344 99 106 L 99 106 C 99 107.656 97.563 109 95.793 109 L 86.207 109 C 84.437 109 83 107.656 83 106 L 83 106 C 83 104.344 84.437 103 86.207 103 Z" style="fill:none;stroke:#FFFFFF;stroke-width:1;stroke-linecap:square;stroke-miterlimit:3;"/><path d=" M 96.931 99.95 Q 99.072 100.251 100.5 99.95 L 100.5 111.975 Q 92.648 112.025 89 111.975 C 93.441 109.77 96.812 106.013 96.931 99.95 Z " fill="rgb(255,255,255)" vector-effect="non-scaling-stroke" stroke-width="1" stroke="rgb(255,255,255)" stroke-linejoin="miter" stroke-linecap="square" stroke-miterlimit="3"/></g></g><line x1="100.5" y1="14.5" x2="100.5" y2="179.5" vector-effect="non-scaling-stroke" stroke-width="2" stroke="rgb(255,255,255)" stroke-linejoin="miter" stroke-linecap="square" stroke-miterlimit="3"/><g id="LeftDiagonalButtons"><path d=" M 18.5 42.4 L 28 42.4 L 22.75 52 L 13.25 52 L 18.5 42.4 Z " fill="none" vector-effect="non-scaling-stroke" stroke-width="1" stroke="rgb(255,255,255)" stroke-linejoin="miter" stroke-linecap="square" stroke-miterlimit="3"/><path d=" M 28 42.4 L 37.5 42.4 L 32.25 52 L 22.75 52 L 28 42.4 Z " fill="none" vector-effect="non-scaling-stroke" stroke-width="1" stroke="rgb(255,255,255)" stroke-linejoin="miter" stroke-linecap="square" stroke-miterlimit="3"/><path d=" M 37.5 42.4 L 99 42.4 L 93.75 52 L 32.25 52 L 37.5 42.4 Z " fill="none" vector-effect="non-scaling-stroke" stroke-width="1" stroke="rgb(255,255,255)" stroke-linejoin="miter" stroke-linecap="square" stroke-miterlimit="3"/></g><g id="Logo"><g id="Outline"><g id="Group" filter="url(#HRUdM7nRQ5GJ5dSMbfAvzr6yoO9NZl51)"><linearGradient id="_lgradient_14" x1="0%" y1="50%" x2="0.5597923203397669%" y2="149.99843315051535%"><stop offset="0%" stop-opacity="1" style="stop-color:rgb(255,255,255)"/><stop offset="100%" stop-opacity="1" style="stop-color:rgb(244,244,244)"/></linearGradient><path d=" M 45.09 25.372 L 50.536 16.647 C 50.57 16.592 50.625 16.592 50.659 16.648 L 54.231 22.519 C 54.264 22.574 54.32 22.575 54.356 22.521 L 56.057 19.9 C 56.092 19.845 56.149 19.846 56.183 19.901 L 57.806 22.52 C 57.841 22.575 57.896 22.574 57.929 22.519 L 61.501 16.648 C 61.535 16.592 61.59 16.592 61.623 16.647 L 66.983 25.371 C 67.017 25.426 66.999 25.498 66.943 25.531 L 56.222 31.878 C 56.166 31.911 56.076 31.912 56.02 31.879 L 45.129 25.53 C 45.073 25.498 45.056 25.427 45.09 25.372 Z  M 45.676 25.213 L 50.54 17.345 C 50.574 17.29 50.628 17.29 50.662 17.345 L 54.234 23.242 C 54.268 23.298 54.325 23.299 54.361 23.246 L 56.055 20.781 C 56.091 20.728 56.151 20.728 56.188 20.781 L 57.805 23.129 C 57.842 23.182 57.899 23.181 57.933 23.126 L 61.504 17.345 C 61.538 17.29 61.592 17.29 61.625 17.346 L 66.314 25.212 C 66.347 25.268 66.329 25.34 66.273 25.373 L 56.225 31.335 C 56.17 31.368 56.079 31.369 56.023 31.336 L 45.716 25.372 C 45.66 25.339 45.642 25.268 45.676 25.213 Z " fill-rule="evenodd" fill="rgb(255,255,255)" vector-effect="non-scaling-stroke" stroke-width="0.242" stroke="url(#_lgradient_14)" stroke-linejoin="miter" stroke-linecap="square" stroke-miterlimit="3"/></g><defs><filter id="HRUdM7nRQ5GJ5dSMbfAvzr6yoO9NZl51" x="-200%" y="-200%" width="400%" height="400%"><feGaussianBlur xmlns="http://www.w3.org/2000/svg" stdDeviation="0.21468045314195142"/></filter></defs><g id="Group" filter="url(#3qpAneU8uGQIngRHoY47E7y8vNIahA7H)"><linearGradient id="_lgradient_15" x1="0%" y1="50%" x2="0.26164137817329153%" y2="149.99965771836034%"><stop offset="0%" stop-opacity="1" style="stop-color:rgb(255,255,255)"/><stop offset="100%" stop-opacity="1" style="stop-color:rgb(243,243,243)"/></linearGradient><path d=" M 45.097 26.727 L 50.505 34.101 C 50.543 34.153 50.605 34.153 50.643 34.101 L 52.054 32.15 C 52.092 32.098 52.154 32.098 52.192 32.15 L 56.051 37.355 C 56.09 37.407 56.152 37.407 56.19 37.355 L 59.969 32.15 C 60.007 32.098 60.068 32.098 60.106 32.151 L 61.494 34.1 C 61.532 34.153 61.593 34.153 61.631 34.101 L 66.975 26.727 C 67.013 26.675 66.999 26.659 66.943 26.691 L 56.222 32.993 C 56.166 33.026 56.076 33.026 56.02 32.993 L 45.129 26.691 C 45.073 26.658 45.059 26.674 45.097 26.727 Z " fill="rgb(255,255,255)" vector-effect="non-scaling-stroke" stroke-width="0.242" stroke="url(#_lgradient_15)" stroke-linejoin="miter" stroke-linecap="square" stroke-miterlimit="3"/></g><defs><filter id="3qpAneU8uGQIngRHoY47E7y8vNIahA7H" x="-200%" y="-200%" width="400%" height="400%"><feGaussianBlur xmlns="http://www.w3.org/2000/svg" stdDeviation="0.21468045314195142"/></filter></defs></g></g><line x1="15" y1="52" x2="99" y2="52" vector-effect="non-scaling-stroke" stroke-width="1" stroke="rgb(255,255,255)" stroke-linejoin="miter" stroke-linecap="square" stroke-miterlimit="3"/><g id="Pagination"><path d="M 42.206 168 L 49.366 168 C 49.874 168 50.286 168.412 50.286 168.92 L 50.286 175.08 C 50.286 175.588 49.874 176 49.366 176 L 42.206 176 C 41.698 176 41.286 175.588 41.286 175.08 L 41.286 168.92 C 41.286 168.412 41.698 168 42.206 168 Z" style="fill:none;stroke:#FFFFFF;stroke-width:1;stroke-linecap:square;stroke-miterlimit:3;"/><path d="M 53.568 168 L 58.504 168 C 58.936 168 59.286 168.35 59.286 168.782 L 59.286 175.218 C 59.286 175.65 58.936 176 58.504 176 L 53.568 176 C 53.137 176 52.786 175.65 52.786 175.218 L 52.786 168.782 C 52.786 168.35 53.137 168 53.568 168 Z" style="stroke:none;fill:#FFFFFF;stroke-linecap:square;stroke-miterlimit:3;"/><path d="M 53.568 168 L 58.504 168 C 58.936 168 59.286 168.35 59.286 168.782 L 59.286 175.218 C 59.286 175.65 58.936 176 58.504 176 L 53.568 176 C 53.137 176 52.786 175.65 52.786 175.218 L 52.786 168.782 C 52.786 168.35 53.137 168 53.568 168 Z" style="fill:none;stroke:#FFFFFF;stroke-width:1;stroke-linecap:square;stroke-miterlimit:3;"/><path d="M 62.706 168 L 69.866 168 C 70.374 168 70.786 168.412 70.786 168.92 L 70.786 175.08 C 70.786 175.588 70.374 176 69.866 176 L 62.706 176 C 62.198 176 61.786 175.588 61.786 175.08 L 61.786 168.92 C 61.786 168.412 62.198 168 62.706 168 Z" style="fill:none;stroke:#FFFFFF;stroke-width:1;stroke-linecap:square;stroke-miterlimit:3;"/></g></g><g id="RightPanel"><g id="Event2"><rect x="222.5" y="86" width="83" height="34" transform="matrix(1,0,0,1,0,0)" fill="none" vector-effect="non-scaling-stroke" stroke-width="1" stroke="rgb(255,255,255)" stroke-linejoin="miter" stroke-linecap="square" stroke-miterlimit="3"/><path d="M 232.685 89 L 259.815 89 C 262.125 89 264 90.875 264 93.185 L 264 111.815 C 264 114.125 262.125 116 259.815 116 L 232.685 116 C 230.375 116 228.5 114.125 228.5 111.815 L 228.5 93.185 C 228.5 90.875 230.375 89 232.685 89 Z" style="stroke:none;fill:#FFFFFF;stroke-linecap:square;stroke-miterlimit:3;"/><line x1="268" y1="91.5" x2="289" y2="91.5" vector-effect="non-scaling-stroke" stroke-width="1" stroke="rgb(255,255,255)" stroke-linejoin="miter" stroke-linecap="square" stroke-miterlimit="3"/><line x1="268" y1="97.5" x2="296" y2="98" vector-effect="non-scaling-stroke" stroke-width="1" stroke="rgb(255,255,255)" stroke-linejoin="miter" stroke-linecap="square" stroke-miterlimit="3"/><line x1="268" y1="103.5" x2="294" y2="103.5" vector-effect="non-scaling-stroke" stroke-width="1" stroke="rgb(255,255,255)" stroke-linejoin="miter" stroke-linecap="square" stroke-miterlimit="3"/><line x1="268" y1="109.5" x2="289" y2="109.5" vector-effect="non-scaling-stroke" stroke-width="1" stroke="rgb(255,255,255)" stroke-linejoin="miter" stroke-linecap="square" stroke-miterlimit="3"/></g><g id="Event1"><rect x="222.5" y="52" width="83" height="34" transform="matrix(1,0,0,1,0,0)" fill="none" vector-effect="non-scaling-stroke" stroke-width="1" stroke="rgb(255,255,255)" stroke-linejoin="miter" stroke-linecap="square" stroke-miterlimit="3"/><path d="M 232.685 55 L 259.815 55 C 262.125 55 264 56.875 264 59.185 L 264 77.815 C 264 80.125 262.125 82 259.815 82 L 232.685 82 C 230.375 82 228.5 80.125 228.5 77.815 L 228.5 59.185 C 228.5 56.875 230.375 55 232.685 55 Z" style="stroke:none;fill:#FFFFFF;stroke-linecap:square;stroke-miterlimit:3;"/><line x1="268" y1="57.5" x2="289" y2="57.5" vector-effect="non-scaling-stroke" stroke-width="1" stroke="rgb(255,255,255)" stroke-linejoin="miter" stroke-linecap="square" stroke-miterlimit="3"/><line x1="268" y1="63.5" x2="296" y2="64" vector-effect="non-scaling-stroke" stroke-width="1" stroke="rgb(255,255,255)" stroke-linejoin="miter" stroke-linecap="square" stroke-miterlimit="3"/><line x1="268" y1="69.5" x2="294" y2="69.5" vector-effect="non-scaling-stroke" stroke-width="1" stroke="rgb(255,255,255)" stroke-linejoin="miter" stroke-linecap="square" stroke-miterlimit="3"/><line x1="268" y1="75.5" x2="289" y2="75.5" vector-effect="non-scaling-stroke" stroke-width="1" stroke="rgb(255,255,255)" stroke-linejoin="miter" stroke-linecap="square" stroke-miterlimit="3"/></g><line x1="223" y1="42" x2="223" y2="180" vector-effect="non-scaling-stroke" stroke-width="2" stroke="rgb(255,255,255)" stroke-linejoin="miter" stroke-linecap="square" stroke-miterlimit="3"/><line x1="223" y1="52" x2="306" y2="52" vector-effect="non-scaling-stroke" stroke-width="1" stroke="rgb(255,255,255)" stroke-linejoin="miter" stroke-linecap="square" stroke-miterlimit="3"/><g id="LeftDiagonalButtons"><path d=" M 229.5 42.4 L 239 42.4 L 233.75 52 L 224.25 52 L 229.5 42.4 Z " fill="none" vector-effect="non-scaling-stroke" stroke-width="1" stroke="rgb(255,255,255)" stroke-linejoin="miter" stroke-linecap="square" stroke-miterlimit="3"/><path d=" M 239 42.4 L 248.5 42.4 L 243.25 52 L 233.75 52 L 239 42.4 Z " fill="none" vector-effect="non-scaling-stroke" stroke-width="1" stroke="rgb(255,255,255)" stroke-linejoin="miter" stroke-linecap="square" stroke-miterlimit="3"/><path d=" M 248.5 42.4 L 278.25 42.4 L 273 52 L 243.25 52 L 248.5 42.4 Z " fill="none" vector-effect="non-scaling-stroke" stroke-width="1" stroke="rgb(255,255,255)" stroke-linejoin="miter" stroke-linecap="square" stroke-miterlimit="3"/><path d=" M 278.25 42.4 L 305.25 42.4 L 300 52 L 273 52 L 278.25 42.4 Z " fill="none" vector-effect="non-scaling-stroke" stroke-width="1" stroke="rgb(255,255,255)" stroke-linejoin="miter" stroke-linecap="square" stroke-miterlimit="3"/></g><g id="Pagination"><path d="M 249.42 168 L 256.58 168 C 257.088 168 257.5 168.412 257.5 168.92 L 257.5 175.08 C 257.5 175.588 257.088 176 256.58 176 L 249.42 176 C 248.912 176 248.5 175.588 248.5 175.08 L 248.5 168.92 C 248.5 168.412 248.912 168 249.42 168 Z" style="fill:none;stroke:#FFFFFF;stroke-width:1;stroke-linecap:square;stroke-miterlimit:3;"/><path d="M 260.782 168 L 265.718 168 C 266.15 168 266.5 168.35 266.5 168.782 L 266.5 175.218 C 266.5 175.65 266.15 176 265.718 176 L 260.782 176 C 260.35 176 260 175.65 260 175.218 L 260 168.782 C 260 168.35 260.35 168 260.782 168 Z" style="stroke:none;fill:#FFFFFF;stroke-linecap:square;stroke-miterlimit:3;"/><path d="M 260.782 168 L 265.718 168 C 266.15 168 266.5 168.35 266.5 168.782 L 266.5 175.218 C 266.5 175.65 266.15 176 265.718 176 L 260.782 176 C 260.35 176 260 175.65 260 175.218 L 260 168.782 C 260 168.35 260.35 168 260.782 168 Z" style="fill:none;stroke:#FFFFFF;stroke-width:1;stroke-linecap:square;stroke-miterlimit:3;"/><path d="M 269.92 168 L 277.08 168 C 277.588 168 278 168.412 278 168.92 L 278 175.08 C 278 175.588 277.588 176 277.08 176 L 269.92 176 C 269.412 176 269 175.588 269 175.08 L 269 168.92 C 269 168.412 269.412 168 269.92 168 Z" style="fill:none;stroke:#FFFFFF;stroke-width:1;stroke-linecap:square;stroke-miterlimit:3;"/></g></g><g id="CentarPanel"><g id="Match3"><rect x="100" y="99.95" width="122.5" height="24" transform="matrix(1,0,0,1,0,0)" fill="none" vector-effect="non-scaling-stroke" stroke-width="1" stroke="rgb(255,255,255)" stroke-linejoin="miter" stroke-linecap="square" stroke-miterlimit="3"/><line x1="116.5" y1="99.95" x2="116.5" y2="123.95" vector-effect="non-scaling-stroke" stroke-width="1" stroke="rgb(255,255,255)" stroke-linejoin="miter" stroke-linecap="square" stroke-miterlimit="3"/><path d="M 105.893 111.95 L 111.857 111.95 C 113.04 111.95 114 112.91 114 114.093 L 114 118.807 C 114 119.99 113.04 120.95 111.857 120.95 L 105.893 120.95 C 104.71 120.95 103.75 119.99 103.75 118.807 L 103.75 114.093 C 103.75 112.91 104.71 111.95 105.893 111.95 Z" style="stroke:none;fill:#FFFFFF;stroke-linecap:square;stroke-miterlimit:3;"/><path d="M 106.75 102.95 L 111 102.95 C 112.656 102.95 114 104.294 114 105.95 L 114 105.95 C 114 107.606 112.656 108.95 111 108.95 L 106.75 108.95 C 105.094 108.95 103.75 107.606 103.75 105.95 L 103.75 105.95 C 103.75 104.294 105.094 102.95 106.75 102.95 Z" style="fill:none;stroke:#FFFFFF;stroke-width:1;stroke-linecap:square;stroke-miterlimit:3;"/><path d="M 138.885 105.45 L 149.115 105.45 C 150.155 105.45 151 106.295 151 107.335 L 151 116.565 C 151 117.605 150.155 118.45 149.115 118.45 L 138.885 118.45 C 137.845 118.45 137 117.605 137 116.565 L 137 107.335 C 137 106.295 137.845 105.45 138.885 105.45 Z" style="stroke:none;fill:#FFFFFF;stroke-linecap:square;stroke-miterlimit:3;"/><path d="M 179.885 105.45 L 190.115 105.45 C 191.155 105.45 192 106.295 192 107.335 L 192 116.565 C 192 117.605 191.155 118.45 190.115 118.45 L 179.885 118.45 C 178.845 118.45 178 117.605 178 116.565 L 178 107.335 C 178 106.295 178.845 105.45 179.885 105.45 Z" style="stroke:none;fill:#FFFFFF;stroke-linecap:square;stroke-miterlimit:3;"/><path d="M 131.739 108.95 L 156.261 108.95 C 157.773 108.95 159 110.07 159 111.45 L 159 111.45 C 159 112.83 157.773 113.95 156.261 113.95 L 131.739 113.95 C 130.227 113.95 129 112.83 129 111.45 L 129 111.45 C 129 110.07 130.227 108.95 131.739 108.95 Z" style="fill:none;stroke:#FFFFFF;stroke-width:1;stroke-linecap:square;stroke-miterlimit:3;"/><path d="M 172.739 109.45 L 197.261 109.45 C 198.773 109.45 200 110.57 200 111.95 L 200 111.95 C 200 113.33 198.773 114.45 197.261 114.45 L 172.739 114.45 C 171.227 114.45 170 113.33 170 111.95 L 170 111.95 C 170 110.57 171.227 109.45 172.739 109.45 Z" style="fill:none;stroke:#FFFFFF;stroke-width:1;stroke-linecap:square;stroke-miterlimit:3;"/><path d=" M 218 99.95 Q 220.7 100.55 222.5 99.95 L 222.5 123.95 Q 212.6 124.05 208 123.95 C 213.6 119.55 217.85 112.05 218 99.95 Z " fill="rgb(255,255,255)" vector-effect="non-scaling-stroke" stroke-width="1" stroke="rgb(255,255,255)" stroke-linejoin="miter" stroke-linecap="square" stroke-miterlimit="3"/></g><g id="Match2"><rect x="100" y="75.95" width="122.5" height="24" transform="matrix(1,0,0,1,0,0)" fill="none" vector-effect="non-scaling-stroke" stroke-width="1" stroke="rgb(255,255,255)" stroke-linejoin="miter" stroke-linecap="square" stroke-miterlimit="3"/><line x1="116.5" y1="75.95" x2="116.5" y2="99.95" vector-effect="non-scaling-stroke" stroke-width="1" stroke="rgb(255,255,255)" stroke-linejoin="miter" stroke-linecap="square" stroke-miterlimit="3"/><path d="M 105.893 87.95 L 111.857 87.95 C 113.04 87.95 114 88.91 114 90.093 L 114 94.807 C 114 95.99 113.04 96.95 111.857 96.95 L 105.893 96.95 C 104.71 96.95 103.75 95.99 103.75 94.807 L 103.75 90.093 C 103.75 88.91 104.71 87.95 105.893 87.95 Z" style="stroke:none;fill:#FFFFFF;stroke-linecap:square;stroke-miterlimit:3;"/><path d="M 106.75 78.95 L 111 78.95 C 112.656 78.95 114 80.294 114 81.95 L 114 81.95 C 114 83.606 112.656 84.95 111 84.95 L 106.75 84.95 C 105.094 84.95 103.75 83.606 103.75 81.95 L 103.75 81.95 C 103.75 80.294 105.094 78.95 106.75 78.95 Z" style="fill:none;stroke:#FFFFFF;stroke-width:1;stroke-linecap:square;stroke-miterlimit:3;"/><path d="M 138.885 81.45 L 149.115 81.45 C 150.155 81.45 151 82.295 151 83.335 L 151 92.565 C 151 93.605 150.155 94.45 149.115 94.45 L 138.885 94.45 C 137.845 94.45 137 93.605 137 92.565 L 137 83.335 C 137 82.295 137.845 81.45 138.885 81.45 Z" style="stroke:none;fill:#FFFFFF;stroke-linecap:square;stroke-miterlimit:3;"/><path d="M 179.885 81.45 L 190.115 81.45 C 191.155 81.45 192 82.295 192 83.335 L 192 92.565 C 192 93.605 191.155 94.45 190.115 94.45 L 179.885 94.45 C 178.845 94.45 178 93.605 178 92.565 L 178 83.335 C 178 82.295 178.845 81.45 179.885 81.45 Z" style="stroke:none;fill:#FFFFFF;stroke-linecap:square;stroke-miterlimit:3;"/><path d="M 131.739 84.95 L 156.261 84.95 C 157.773 84.95 159 86.07 159 87.45 L 159 87.45 C 159 88.83 157.773 89.95 156.261 89.95 L 131.739 89.95 C 130.227 89.95 129 88.83 129 87.45 L 129 87.45 C 129 86.07 130.227 84.95 131.739 84.95 Z" style="fill:none;stroke:#FFFFFF;stroke-width:1;stroke-linecap:square;stroke-miterlimit:3;"/><path d="M 172.739 85.45 L 197.261 85.45 C 198.773 85.45 200 86.57 200 87.95 L 200 87.95 C 200 89.33 198.773 90.45 197.261 90.45 L 172.739 90.45 C 171.227 90.45 170 89.33 170 87.95 L 170 87.95 C 170 86.57 171.227 85.45 172.739 85.45 Z" style="fill:none;stroke:#FFFFFF;stroke-width:1;stroke-linecap:square;stroke-miterlimit:3;"/><path d=" M 218 75.95 Q 220.7 76.55 222.5 75.95 L 222.5 99.95 Q 212.6 100.05 208 99.95 C 213.6 95.55 217.85 88.05 218 75.95 Z " fill="rgb(255,255,255)" vector-effect="non-scaling-stroke" stroke-width="1" stroke="rgb(255,255,255)" stroke-linejoin="miter" stroke-linecap="square" stroke-miterlimit="3"/></g><g id="Match1"><rect x="100" y="52" width="122.5" height="24" transform="matrix(1,0,0,1,0,0)" fill="none" vector-effect="non-scaling-stroke" stroke-width="1" stroke="rgb(255,255,255)" stroke-linejoin="miter" stroke-linecap="square" stroke-miterlimit="3"/><line x1="116.5" y1="52" x2="116.5" y2="76" vector-effect="non-scaling-stroke" stroke-width="1" stroke="rgb(255,255,255)" stroke-linejoin="miter" stroke-linecap="square" stroke-miterlimit="3"/><path d="M 105.893 64 L 111.857 64 C 113.04 64 114 64.96 114 66.143 L 114 70.857 C 114 72.04 113.04 73 111.857 73 L 105.893 73 C 104.71 73 103.75 72.04 103.75 70.857 L 103.75 66.143 C 103.75 64.96 104.71 64 105.893 64 Z" style="stroke:none;fill:#FFFFFF;stroke-linecap:square;stroke-miterlimit:3;"/><path d="M 106.75 55 L 111 55 C 112.656 55 114 56.344 114 58 L 114 58 C 114 59.656 112.656 61 111 61 L 106.75 61 C 105.094 61 103.75 59.656 103.75 58 L 103.75 58 C 103.75 56.344 105.094 55 106.75 55 Z" style="fill:none;stroke:#FFFFFF;stroke-width:1;stroke-linecap:square;stroke-miterlimit:3;"/><path d="M 138.885 57.5 L 149.115 57.5 C 150.155 57.5 151 58.345 151 59.385 L 151 68.615 C 151 69.655 150.155 70.5 149.115 70.5 L 138.885 70.5 C 137.845 70.5 137 69.655 137 68.615 L 137 59.385 C 137 58.345 137.845 57.5 138.885 57.5 Z" style="stroke:none;fill:#FFFFFF;stroke-linecap:square;stroke-miterlimit:3;"/><path d="M 179.885 57.5 L 190.115 57.5 C 191.155 57.5 192 58.345 192 59.385 L 192 68.615 C 192 69.655 191.155 70.5 190.115 70.5 L 179.885 70.5 C 178.845 70.5 178 69.655 178 68.615 L 178 59.385 C 178 58.345 178.845 57.5 179.885 57.5 Z" style="stroke:none;fill:#FFFFFF;stroke-linecap:square;stroke-miterlimit:3;"/><path d="M 131.739 61 L 156.261 61 C 157.773 61 159 62.12 159 63.5 L 159 63.5 C 159 64.88 157.773 66 156.261 66 L 131.739 66 C 130.227 66 129 64.88 129 63.5 L 129 63.5 C 129 62.12 130.227 61 131.739 61 Z" style="fill:none;stroke:#FFFFFF;stroke-width:1;stroke-linecap:square;stroke-miterlimit:3;"/><path d="M 172.739 61.5 L 197.261 61.5 C 198.773 61.5 200 62.62 200 64 L 200 64 C 200 65.38 198.773 66.5 197.261 66.5 L 172.739 66.5 C 171.227 66.5 170 65.38 170 64 L 170 64 C 170 62.62 171.227 61.5 172.739 61.5 Z" style="fill:none;stroke:#FFFFFF;stroke-width:1;stroke-linecap:square;stroke-miterlimit:3;"/><path d=" M 218 52 Q 220.7 52.6 222.5 52 L 222.5 76 Q 212.6 76.1 208 76 C 213.6 71.6 217.85 64.1 218 52 Z " fill="rgb(255,255,255)" vector-effect="non-scaling-stroke" stroke-width="1" stroke="rgb(255,255,255)" stroke-linejoin="miter" stroke-linecap="square" stroke-miterlimit="3"/></g><g id="Pagination"><path d="M 148.42 168 L 155.58 168 C 156.088 168 156.5 168.412 156.5 168.92 L 156.5 175.08 C 156.5 175.588 156.088 176 155.58 176 L 148.42 176 C 147.912 176 147.5 175.588 147.5 175.08 L 147.5 168.92 C 147.5 168.412 147.912 168 148.42 168 Z" style="fill:none;stroke:#FFFFFF;stroke-width:1;stroke-linecap:square;stroke-miterlimit:3;"/><path d="M 159.782 168 L 164.718 168 C 165.15 168 165.5 168.35 165.5 168.782 L 165.5 175.218 C 165.5 175.65 165.15 176 164.718 176 L 159.782 176 C 159.35 176 159 175.65 159 175.218 L 159 168.782 C 159 168.35 159.35 168 159.782 168 Z" style="stroke:none;fill:#FFFFFF;stroke-linecap:square;stroke-miterlimit:3;"/><path d="M 159.782 168 L 164.718 168 C 165.15 168 165.5 168.35 165.5 168.782 L 165.5 175.218 C 165.5 175.65 165.15 176 164.718 176 L 159.782 176 C 159.35 176 159 175.65 159 175.218 L 159 168.782 C 159 168.35 159.35 168 159.782 168 Z" style="fill:none;stroke:#FFFFFF;stroke-width:1;stroke-linecap:square;stroke-miterlimit:3;"/><path d="M 168.92 168 L 176.08 168 C 176.588 168 177 168.412 177 168.92 L 177 175.08 C 177 175.588 176.588 176 176.08 176 L 168.92 176 C 168.412 176 168 175.588 168 175.08 L 168 168.92 C 168 168.412 168.412 168 168.92 168 Z" style="fill:none;stroke:#FFFFFF;stroke-width:1;stroke-linecap:square;stroke-miterlimit:3;"/></g><g id="CenterDiagonalButtons"><path d=" M 105.75 42 L 115.25 42 L 110 51.6 L 100.5 51.6 L 105.75 42 Z " fill="none" vector-effect="non-scaling-stroke" stroke-width="1" stroke="rgb(255,255,255)" stroke-linejoin="miter" stroke-linecap="square" stroke-miterlimit="3"/><path d=" M 115.25 42 L 124.75 42 L 119.5 51.6 L 110 51.6 L 115.25 42 Z " fill="none" vector-effect="non-scaling-stroke" stroke-width="1" stroke="rgb(255,255,255)" stroke-linejoin="miter" stroke-linecap="square" stroke-miterlimit="3"/><path d=" M 124.75 42 L 173.25 42 L 168 51.6 L 119.5 51.6 L 124.75 42 Z " fill="none" vector-effect="non-scaling-stroke" stroke-width="1" stroke="rgb(255,255,255)" stroke-linejoin="miter" stroke-linecap="square" stroke-miterlimit="3"/><path d=" M 173.375 42 L 221.875 42 L 216.625 51.6 L 168.125 51.6 L 173.375 42 Z " fill="none" vector-effect="non-scaling-stroke" stroke-width="1" stroke="rgb(255,255,255)" stroke-linejoin="miter" stroke-linecap="square" stroke-miterlimit="3"/></g><line x1="99" y1="52" x2="223" y2="52" vector-effect="non-scaling-stroke" stroke-width="1" stroke="rgb(255,255,255)" stroke-linejoin="miter" stroke-linecap="square" stroke-miterlimit="3"/><rect x="100.5" y="42" width="122" height="137.5" transform="matrix(1,0,0,1,0,0)" fill="none" vector-effect="non-scaling-stroke" stroke-width="1" stroke="rgb(255,255,255)" stroke-linejoin="miter" stroke-linecap="square" stroke-miterlimit="3"/></g><path d=" M 256 191 C 256 187.964 258.464 185.5 261.5 185.5 C 264.536 185.5 267 187.964 267 191 C 267 194.036 264.536 196.5 261.5 196.5 C 258.464 196.5 256 194.036 256 191 Z " fill="none" vector-effect="non-scaling-stroke" stroke-width="1" stroke="rgb(255,255,255)" stroke-linejoin="miter" stroke-linecap="square" stroke-miterlimit="3"/><path d=" M 272.5 191 C 272.5 187.964 274.964 185.5 278 185.5 C 281.036 185.5 283.5 187.964 283.5 191 C 283.5 194.036 281.036 196.5 278 196.5 C 274.964 196.5 272.5 194.036 272.5 191 Z " fill="none" vector-effect="non-scaling-stroke" stroke-width="1" stroke="rgb(255,255,255)" stroke-linejoin="miter" stroke-linecap="square" stroke-miterlimit="3"/><path d=" M 289 191 C 289 187.964 291.464 185.5 294.5 185.5 C 297.536 185.5 300 187.964 300 191 C 300 194.036 297.536 196.5 294.5 196.5 C 291.464 196.5 289 194.036 289 191 Z " fill="none" vector-effect="non-scaling-stroke" stroke-width="1" stroke="rgb(255,255,255)" stroke-linejoin="miter" stroke-linecap="square" stroke-miterlimit="3"/><line x1="289" y1="12.5" x2="289" y2="27" vector-effect="non-scaling-stroke" stroke-width="1" stroke="rgb(255,255,255)" stroke-linejoin="miter" stroke-linecap="square" stroke-miterlimit="3"/><line x1="272.5" y1="12.5" x2="272.5" y2="27" vector-effect="non-scaling-stroke" stroke-width="1" stroke="rgb(255,255,255)" stroke-linejoin="miter" stroke-linecap="square" stroke-miterlimit="3"/><line x1="256" y1="12.5" x2="256" y2="27" vector-effect="non-scaling-stroke" stroke-width="1" stroke="rgb(255,255,255)" stroke-linejoin="miter" stroke-linecap="square" stroke-miterlimit="3"/><line x1="122" y1="184" x2="122" y2="198" vector-effect="non-scaling-stroke" stroke-width="1" stroke="rgb(255,255,255)" stroke-linejoin="miter" stroke-linecap="square" stroke-miterlimit="3"/><line x1="122" y1="191" x2="217.5" y2="191" vector-effect="non-scaling-stroke" stroke-width="1" stroke="rgb(255,255,255)" stroke-linejoin="miter" stroke-linecap="square" stroke-miterlimit="3"/></g></g></svg>