<?xml version="1.0" standalone="no"?><!-- Generator: Gravit.io --><svg xmlns="http://www.w3.org/2000/svg" xmlns:xlink="http://www.w3.org/1999/xlink" style="isolation:isolate" viewBox="0 0 200 128" width="200" height="128"><defs><clipPath id="_clipPath_qmzReKPgNBo0fNOdpA2CC7bYjmcr69R5"><rect width="200" height="128"/></clipPath></defs><g clip-path="url(#_clipPath_qmzReKPgNBo0fNOdpA2CC7bYjmcr69R5)"><g style="isolation:isolate" id="Layer 0"><path d=" M 9 99.813 C 9 97.501 13.033 95.625 18 95.625 C 22.967 95.625 27 97.501 27 99.813 C 27 102.124 22.967 104 18 104 C 13.033 104 9 102.124 9 99.813 Z " fill="rgb(255,255,255)"/><path d=" M 147.875 66.75 C 147.875 65.508 150.115 64.5 152.875 64.5 C 155.635 64.5 157.875 65.508 157.875 66.75 C 157.875 67.992 155.635 69 152.875 69 C 150.115 69 147.875 67.992 147.875 66.75 Z " fill="rgb(255,255,255)"/><path d=" M 99.5 80.25 C 99.5 78.732 101.852 77.5 104.75 77.5 C 107.648 77.5 110 78.732 110 80.25 C 110 81.768 107.648 83 104.75 83 C 101.852 83 99.5 81.768 99.5 80.25 Z " fill="rgb(255,255,255)"/><path d=" M 175 44.5 C 175 43.672 176.792 43 179 43 C 181.208 43 183 43.672 183 44.5 C 183 45.328 181.208 46 179 46 C 176.792 46 175 45.328 175 44.5 Z " fill="rgb(255,255,255)"/><path d=" M 55 75 C 55 73.344 57.689 72 61 72 C 64.311 72 67 73.344 67 75 C 67 76.656 64.311 78 61 78 C 57.689 78 55 76.656 55 75 Z " fill="rgb(255,255,255)"/><path d=" M 91.765 92.313 C 91.765 90.484 94.506 89 97.882 89 C 101.259 89 104 90.484 104 92.313 C 104 94.141 101.259 95.625 97.882 95.625 C 94.506 95.625 91.765 94.141 91.765 92.313 Z " fill="rgb(255,255,255)"/></g><g style="isolation:isolate" id="Layer 1"><path d=" M 18 99 C 38.867 99.467 77.867 105.133 72 94 C 66.133 82.867 36.133 87.2 32 82 C 27.867 76.8 50.533 72.8 61 75 C 71.467 77.2 83.277 91.763 98 92 C 109.651 92.187 127.467 88.533 129 82 C 130.533 75.467 127.867 67.8 109 66 C 90.133 64.2 71.467 78.2 105 80 C 138.533 81.8 120.7 69.7 153 67 C 185.3 64.3 156.702 55.19 163 52 C 170.8 48.05 173.637 56.175 179 54 C 184.363 51.825 172.533 51.133 179 45" fill="none" vector-effect="non-scaling-stroke" stroke-width="1" stroke-dasharray="3,2" stroke="rgb(255,255,255)" stroke-linejoin="miter" stroke-linecap="square" stroke-miterlimit="3"/><line x1="61" y1="73.974" x2="61" y2="44" vector-effect="non-scaling-stroke" stroke-width="1" stroke="rgb(240,240,240)" stroke-linejoin="miter" stroke-linecap="square" stroke-miterlimit="3"/><line x1="18" y1="99" x2="18" y2="33" vector-effect="non-scaling-stroke" stroke-width="2" stroke="rgb(244,244,244)" stroke-linejoin="miter" stroke-linecap="square" stroke-miterlimit="3"/><line x1="98" y1="91" x2="98" y2="61" vector-effect="non-scaling-stroke" stroke-width="1" stroke="rgb(240,240,240)" stroke-linejoin="miter" stroke-linecap="square" stroke-miterlimit="3"/><line x1="105" y1="79" x2="105" y2="47" vector-effect="non-scaling-stroke" stroke-width="1" stroke="rgb(244,244,244)" stroke-linejoin="miter" stroke-linecap="square" stroke-miterlimit="3"/><line x1="153" y1="66" x2="153" y2="47" vector-effect="non-scaling-stroke" stroke-width="1" stroke="rgb(242,242,242)" stroke-linejoin="miter" stroke-linecap="square" stroke-miterlimit="3"/><line x1="179" y1="44" x2="179" y2="29" vector-effect="non-scaling-stroke" stroke-width="1" stroke="rgb(242,242,242)" stroke-linejoin="miter" stroke-linecap="square" stroke-miterlimit="3"/></g><g style="isolation:isolate" id="Bubble"><path d=" M 65.588 14 L 84.412 14 C 86.944 14 89 16.056 89 18.588 L 89 29.149 C 89 31.681 86.944 33.737 84.412 33.737 L 67.45 33.737 L 61 39 L 61 38.325 Q 61 33.737 61 29.149 L 61 18.588 C 61 16.056 63.056 14 65.588 14 Z " fill="none" vector-effect="non-scaling-stroke" stroke-width="1" stroke="rgb(255,255,255)" stroke-linejoin="miter" stroke-linecap="square" stroke-miterlimit="3"/><line x1="65" y1="24" x2="84" y2="24" vector-effect="non-scaling-stroke" stroke-width="1" stroke="rgb(255,255,255)" stroke-linejoin="miter" stroke-linecap="square" stroke-miterlimit="3"/><line x1="65" y1="19" x2="84" y2="19" vector-effect="non-scaling-stroke" stroke-width="1" stroke="rgb(255,255,255)" stroke-linejoin="miter" stroke-linecap="square" stroke-miterlimit="3"/><rect x="65" y="27" width="19" height="3" transform="matrix(1,0,0,1,0,0)" fill="none" vector-effect="non-scaling-stroke" stroke-width="1" stroke="rgb(255,255,255)" stroke-linejoin="miter" stroke-linecap="square" stroke-miterlimit="3"/><rect x="65" y="27" width="13" height="3" transform="matrix(1,0,0,1,0,0)" fill="rgb(255,255,255)"/></g><g style="isolation:isolate" id="Bubble"><path d=" M 109.496 19 L 128.504 19 C 130.986 19 133 21.014 133 23.496 L 133 33.452 C 133 35.933 130.986 37.947 128.504 37.947 L 111.45 37.947 L 105 43 L 105 42.443 Q 105 37.947 105 33.452 L 105 23.496 C 105 21.014 107.014 19 109.496 19 Z " fill="none" vector-effect="non-scaling-stroke" stroke-width="1" stroke="rgb(255,255,255)" stroke-linejoin="miter" stroke-linecap="square" stroke-miterlimit="3"/><path d=" M 123.112 33.919 C 123.861 34.168 124.511 34.955 124.861 35.801 C 124.966 36.055 125.185 36.083 125.349 35.861 C 126.189 34.729 127.476 32.983 128.888 30.989" fill="none" vector-effect="non-scaling-stroke" stroke-width="1" stroke="rgb(255,255,255)" stroke-linejoin="miter" stroke-linecap="square" stroke-miterlimit="3"/><line x1="109.5" y1="28" x2="126.5" y2="28" vector-effect="non-scaling-stroke" stroke-width="1" stroke="rgb(255,255,255)" stroke-linejoin="miter" stroke-linecap="square" stroke-miterlimit="3"/><line x1="110" y1="33.5" x2="119" y2="33.5" vector-effect="non-scaling-stroke" stroke-width="1" stroke="rgb(255,255,255)" stroke-linejoin="miter" stroke-linecap="square" stroke-miterlimit="3"/><line x1="109.5" y1="23" x2="126.5" y2="23" vector-effect="non-scaling-stroke" stroke-width="1" stroke="rgb(255,255,255)" stroke-linejoin="miter" stroke-linecap="square" stroke-miterlimit="3"/></g><g style="isolation:isolate" id="Bubble"><path d=" M 155.685 26 L 169.815 26 C 171.573 26 173 27.427 173 29.185 L 173 36.828 C 173 38.586 171.573 40.013 169.815 40.013 L 156.877 40.013 L 152.5 43.75 L 152.5 43.198 Q 152.5 40.013 152.5 36.828 L 152.5 29.185 C 152.5 27.427 153.927 26 155.685 26 Z " fill="none" vector-effect="non-scaling-stroke" stroke-width="0.694" stroke="rgb(255,255,255)" stroke-linejoin="miter" stroke-linecap="square" stroke-miterlimit="3"/><path d="M 165 33 L 168 33 C 168.552 33 169 33.448 169 34 L 169 36 C 169 36.552 168.552 37 168 37 L 165 37 C 164.448 37 164 36.552 164 36 L 164 34 C 164 33.448 164.448 33 165 33 Z" style="fill:none;stroke:#FFFFFF;stroke-width:1;stroke-linecap:square;stroke-miterlimit:3;"/><line x1="156.877" y1="33" x2="161" y2="33" vector-effect="non-scaling-stroke" stroke-width="1" stroke="rgb(255,255,255)" stroke-linejoin="miter" stroke-linecap="square" stroke-miterlimit="3"/><line x1="156.877" y1="37" x2="161" y2="37" vector-effect="non-scaling-stroke" stroke-width="1" stroke="rgb(255,255,255)" stroke-linejoin="miter" stroke-linecap="square" stroke-miterlimit="3"/><line x1="156.877" y1="29" x2="169" y2="29" vector-effect="non-scaling-stroke" stroke-width="1" stroke="rgb(255,255,255)" stroke-linejoin="miter" stroke-linecap="square" stroke-miterlimit="3"/></g><g style="isolation:isolate" id="Bubble"><path d=" M 94.815 40.25 L 82.185 40.25 C 80.427 40.25 79 41.677 79 43.435 L 79 51.078 C 79 52.836 80.427 54.263 82.185 54.263 L 93.623 54.263 L 98 58 L 98 57.448 Q 98 54.263 98 51.078 L 98 43.435 C 98 41.677 96.573 40.25 94.815 40.25 Z " fill="none" vector-effect="non-scaling-stroke" stroke-width="0.694" stroke="rgb(255,255,255)" stroke-linejoin="miter" stroke-linecap="square" stroke-miterlimit="3"/><line x1="94.562" y1="44" x2="82.438" y2="44" vector-effect="non-scaling-stroke" stroke-width="1" stroke="rgb(255,255,255)" stroke-linejoin="miter" stroke-linecap="square" stroke-miterlimit="3"/><path d=" M 86.601 51 L 85.233 49.952 L 83.604 50.496 L 84.168 48.857 L 83.152 47.458 L 84.867 47.494 L 85.869 46.085 L 86.366 47.746 L 88 48.273 L 86.592 49.265 L 86.601 51 Z " fill="rgb(235,235,235)"/><path d=" M 91.951 50.748 L 90.682 49.807 L 89.17 50.296 L 89.693 48.825 L 88.75 47.57 L 90.342 47.601 L 91.272 46.336 L 91.733 47.827 L 93.25 48.301 L 91.943 49.191 L 91.951 50.748 Z " fill="none" vector-effect="non-scaling-stroke" stroke-width="0.5" stroke="rgb(255,255,255)" stroke-linejoin="miter" stroke-linecap="square" stroke-miterlimit="3"/><path d=" M 179.905 30.429 Q 183.6 31.7 185.453 30.429 Q 189.225 29.825 191 33 L 191 33 Q 187.725 33.2 185.453 35.571 Q 182.6 37.45 179.905 35.571 L 179.905 30.429 Z " fill="rgb(255,255,255)" vector-effect="non-scaling-stroke" stroke-width="2.313" stroke="rgb(255,255,255)" stroke-opacity="100" stroke-linejoin="miter" stroke-linecap="square" stroke-miterlimit="3"/><path d=" M 19 35.877 Q 29.656 39.905 35.001 35.877 Q 45.88 33.964 51 44.025 L 51 44.025 Q 41.554 44.659 35.001 52.173 Q 26.772 58.126 19 52.173 L 19 35.877 Z " fill="rgb(255,255,255)" vector-effect="non-scaling-stroke" stroke-width="2.313" stroke="rgb(255,255,255)" stroke-opacity="100" stroke-linejoin="miter" stroke-linecap="square" stroke-miterlimit="3"/></g></g></svg>