<?xml version="1.0" standalone="no"?><!-- Generator: Gravit.io --><svg xmlns="http://www.w3.org/2000/svg" xmlns:xlink="http://www.w3.org/1999/xlink" style="isolation:isolate" viewBox="0 0 130 130" width="130" height="130"><defs><clipPath id="_clipPath_6nfcVcgZXmBOiVJyqbHkqVMASBGthfcb"><rect width="130" height="130"/></clipPath></defs><g clip-path="url(#_clipPath_6nfcVcgZXmBOiVJyqbHkqVMASBGthfcb)"><path d=" M 7.472 54.064 C 7.472 51.192 9.804 48.861 12.676 48.861 C 15.547 48.861 17.879 51.192 17.879 54.064 C 17.879 56.936 15.547 59.268 12.676 59.268 C 9.804 59.268 7.472 56.936 7.472 54.064 Z " fill="rgb(255,255,255)" vector-effect="non-scaling-stroke" stroke-width="2.313" stroke="rgb(255,255,255)" stroke-linejoin="miter" stroke-linecap="square" stroke-miterlimit="3"/><path d=" M 7.472 77.191 C 7.472 74.319 9.804 71.987 12.676 71.987 C 15.547 71.987 17.879 74.319 17.879 77.191 C 17.879 80.063 15.547 82.395 12.676 82.395 C 9.804 82.395 7.472 80.063 7.472 77.191 Z " fill="none" vector-effect="non-scaling-stroke" stroke-width="2.313" stroke="rgb(255,255,255)" stroke-linejoin="miter" stroke-linecap="square" stroke-miterlimit="3"/><path d=" M 7.472 100.318 C 7.472 97.446 9.804 95.114 12.676 95.114 C 15.547 95.114 17.879 97.446 17.879 100.318 C 17.879 103.19 15.547 105.521 12.676 105.521 C 9.804 105.521 7.472 103.19 7.472 100.318 Z " fill="none" vector-effect="non-scaling-stroke" stroke-width="2.313" stroke="rgb(255,255,255)" stroke-linejoin="miter" stroke-linecap="square" stroke-miterlimit="3"/><path d=" M 30.599 54.064 C 30.599 51.192 32.93 48.861 35.802 48.861 C 38.674 48.861 41.006 51.192 41.006 54.064 C 41.006 56.936 38.674 59.268 35.802 59.268 C 32.93 59.268 30.599 56.936 30.599 54.064 Z " fill="none" vector-effect="non-scaling-stroke" stroke-width="2.313" stroke="rgb(255,255,255)" stroke-linejoin="miter" stroke-linecap="square" stroke-miterlimit="3"/><path d=" M 30.599 77.191 C 30.599 74.319 32.93 71.987 35.802 71.987 C 38.674 71.987 41.006 74.319 41.006 77.191 C 41.006 80.063 38.674 82.395 35.802 82.395 C 32.93 82.395 30.599 80.063 30.599 77.191 Z " fill="none" vector-effect="non-scaling-stroke" stroke-width="2.313" stroke="rgb(255,255,255)" stroke-linejoin="miter" stroke-linecap="square" stroke-miterlimit="3"/><path d=" M 30.599 100.318 C 30.599 97.446 32.93 95.114 35.802 95.114 C 38.674 95.114 41.006 97.446 41.006 100.318 C 41.006 103.19 38.674 105.521 35.802 105.521 C 32.93 105.521 30.599 103.19 30.599 100.318 Z " fill="none" vector-effect="non-scaling-stroke" stroke-width="2.313" stroke="rgb(255,255,255)" stroke-linejoin="miter" stroke-linecap="square" stroke-miterlimit="3"/><path d=" M 76.853 54.064 C 76.853 51.192 79.184 48.861 82.056 48.861 C 84.928 48.861 87.26 51.192 87.26 54.064 C 87.26 56.936 84.928 59.268 82.056 59.268 C 79.184 59.268 76.853 56.936 76.853 54.064 Z " fill="none" vector-effect="non-scaling-stroke" stroke-width="2.313" stroke="rgb(255,255,255)" stroke-linejoin="miter" stroke-linecap="square" stroke-miterlimit="3"/><path d=" M 99.979 54.064 C 99.979 51.192 102.311 48.861 105.183 48.861 C 108.055 48.861 110.386 51.192 110.386 54.064 C 110.386 56.936 108.055 59.268 105.183 59.268 C 102.311 59.268 99.979 56.936 99.979 54.064 Z " fill="rgb(255,255,255)" vector-effect="non-scaling-stroke" stroke-width="2.313" stroke="rgb(255,255,255)" stroke-linejoin="miter" stroke-linecap="square" stroke-miterlimit="3"/><path d=" M 76.853 77.191 C 76.853 74.319 79.184 71.987 82.056 71.987 C 84.928 71.987 87.26 74.319 87.26 77.191 C 87.26 80.063 84.928 82.395 82.056 82.395 C 79.184 82.395 76.853 80.063 76.853 77.191 Z " fill="none" vector-effect="non-scaling-stroke" stroke-width="2.313" stroke="rgb(255,255,255)" stroke-linejoin="miter" stroke-linecap="square" stroke-miterlimit="3"/><path d=" M 99.979 77.191 C 99.979 74.319 102.311 71.987 105.183 71.987 C 108.055 71.987 110.386 74.319 110.386 77.191 C 110.386 80.063 108.055 82.395 105.183 82.395 C 102.311 82.395 99.979 80.063 99.979 77.191 Z " fill="none" vector-effect="non-scaling-stroke" stroke-width="2.313" stroke="rgb(255,255,255)" stroke-linejoin="miter" stroke-linecap="square" stroke-miterlimit="3"/><path d=" M 76.853 100.318 C 76.853 97.446 79.184 95.114 82.056 95.114 C 84.928 95.114 87.26 97.446 87.26 100.318 C 87.26 103.19 84.928 105.521 82.056 105.521 C 79.184 105.521 76.853 103.19 76.853 100.318 Z " fill="none" vector-effect="non-scaling-stroke" stroke-width="2.313" stroke="rgb(255,255,255)" stroke-linejoin="miter" stroke-linecap="square" stroke-miterlimit="3"/><path d=" M 99.979 100.318 C 99.979 97.446 102.311 95.114 105.183 95.114 C 108.055 95.114 110.386 97.446 110.386 100.318 C 110.386 103.19 108.055 105.521 105.183 105.521 C 102.311 105.521 99.979 103.19 99.979 100.318 Z " fill="none" vector-effect="non-scaling-stroke" stroke-width="2.313" stroke="rgb(255,255,255)" stroke-linejoin="miter" stroke-linecap="square" stroke-miterlimit="3"/><path d=" M 53.726 54.064 C 53.726 51.192 56.057 48.861 58.929 48.861 C 61.801 48.861 64.133 51.192 64.133 54.064 C 64.133 56.936 61.801 59.268 58.929 59.268 C 56.057 59.268 53.726 56.936 53.726 54.064 Z " fill="none" vector-effect="non-scaling-stroke" stroke-width="2.313" stroke="rgb(255,255,255)" stroke-linejoin="miter" stroke-linecap="square" stroke-miterlimit="3"/><path d=" M 53.726 77.191 C 53.726 74.319 56.057 71.987 58.929 71.987 C 61.801 71.987 64.133 74.319 64.133 77.191 C 64.133 80.063 61.801 82.395 58.929 82.395 C 56.057 82.395 53.726 80.063 53.726 77.191 Z " fill="none" vector-effect="non-scaling-stroke" stroke-width="2.313" stroke="rgb(255,255,255)" stroke-linejoin="miter" stroke-linecap="square" stroke-miterlimit="3"/><path d=" M 53.726 100.318 C 53.726 97.446 56.057 95.114 58.929 95.114 C 61.801 95.114 64.133 97.446 64.133 100.318 C 64.133 103.19 61.801 105.521 58.929 105.521 C 56.057 105.521 53.726 103.19 53.726 100.318 Z " fill="none" vector-effect="non-scaling-stroke" stroke-width="2.313" stroke="rgb(255,255,255)" stroke-linejoin="miter" stroke-linecap="square" stroke-miterlimit="3"/><line x1="12.676" y1="59.268" x2="12.676" y2="71.987" vector-effect="non-scaling-stroke" stroke-width="2.313" stroke-dasharray="1,4" stroke="rgb(255,255,255)" stroke-linejoin="miter" stroke-linecap="square" stroke-miterlimit="3"/><line x1="12.676" y1="82.395" x2="12.676" y2="95.114" vector-effect="non-scaling-stroke" stroke-width="2.313" stroke-dasharray="1,4" stroke="rgb(255,255,255)" stroke-linejoin="miter" stroke-linecap="square" stroke-miterlimit="3"/><line x1="17.879" y1="100.318" x2="30.599" y2="100.318" vector-effect="non-scaling-stroke" stroke-width="2.313" stroke-dasharray="1,4" stroke="rgb(255,255,255)" stroke-linejoin="miter" stroke-linecap="square" stroke-miterlimit="3"/><line x1="35.802" y1="95.114" x2="35.802" y2="82.395" vector-effect="non-scaling-stroke" stroke-width="2.313" stroke-dasharray="1,4" stroke="rgb(255,255,255)" stroke-linejoin="miter" stroke-linecap="square" stroke-miterlimit="3"/><line x1="35.802" y1="71.987" x2="35.802" y2="59.268" vector-effect="non-scaling-stroke" stroke-width="2.313" stroke-dasharray="1,4" stroke="rgb(255,255,255)" stroke-linejoin="miter" stroke-linecap="square" stroke-miterlimit="3"/><line x1="41.006" y1="54.064" x2="53.726" y2="54.064" vector-effect="non-scaling-stroke" stroke-width="2.313" stroke-dasharray="1,4" stroke="rgb(255,255,255)" stroke-linejoin="miter" stroke-linecap="square" stroke-miterlimit="3"/><line x1="64.133" y1="54.064" x2="76.853" y2="54.064" vector-effect="non-scaling-stroke" stroke-width="2.313" stroke-dasharray="1,4" stroke="rgb(255,255,255)" stroke-linejoin="miter" stroke-linecap="square" stroke-miterlimit="3"/><line x1="82.056" y1="59.268" x2="82.056" y2="71.987" vector-effect="non-scaling-stroke" stroke-width="2.313" stroke-dasharray="1,4" stroke="rgb(255,255,255)" stroke-linejoin="miter" stroke-linecap="square" stroke-miterlimit="3"/><line x1="105.183" y1="59.268" x2="105.183" y2="71.987" vector-effect="non-scaling-stroke" stroke-width="2.313" stroke-dasharray="1,4" stroke="rgb(255,255,255)" stroke-linejoin="miter" stroke-linecap="square" stroke-miterlimit="3"/><line x1="76.853" y1="77.191" x2="64.133" y2="77.191" vector-effect="non-scaling-stroke" stroke-width="2.313" stroke-dasharray="1,4" stroke="rgb(255,255,255)" stroke-linejoin="miter" stroke-linecap="square" stroke-miterlimit="3"/><line x1="58.929" y1="82.395" x2="58.929" y2="95.114" vector-effect="non-scaling-stroke" stroke-width="2.313" stroke-dasharray="1,4" stroke="rgb(255,255,255)" stroke-linejoin="miter" stroke-linecap="square" stroke-miterlimit="3"/><line x1="64.133" y1="100.318" x2="76.853" y2="100.318" vector-effect="non-scaling-stroke" stroke-width="2.313" stroke-dasharray="1,4" stroke="rgb(255,255,255)" stroke-linejoin="miter" stroke-linecap="square" stroke-miterlimit="3"/><line x1="87.26" y1="100.318" x2="99.979" y2="100.318" vector-effect="non-scaling-stroke" stroke-width="2.313" stroke-dasharray="1,4" stroke="rgb(255,255,255)" stroke-linejoin="miter" stroke-linecap="square" stroke-miterlimit="3"/><line x1="105.183" y1="95.114" x2="105.183" y2="82.395" vector-effect="non-scaling-stroke" stroke-width="2.313" stroke-dasharray="1,4" stroke="rgb(255,255,255)" stroke-linejoin="miter" stroke-linecap="square" stroke-miterlimit="3"/><line x1="12.676" y1="54.064" x2="12.676" y2="25.156" vector-effect="non-scaling-stroke" stroke-width="2.313" stroke="rgb(255,255,255)" stroke-linejoin="miter" stroke-linecap="square" stroke-miterlimit="3"/><line x1="105.183" y1="54.064" x2="105.183" y2="25.156" vector-effect="non-scaling-stroke" stroke-width="2.313" stroke="rgb(255,255,255)" stroke-linejoin="miter" stroke-linecap="square" stroke-miterlimit="3"/><path d=" M 13.832 25.156 Q 21.926 26.509 21.926 25.156 Q 21.926 23.802 30.021 25.156 L 30.021 32.094 Q 21.926 30.74 21.926 32.094 Q 21.926 33.447 13.832 32.094 L 13.832 25.156 Z " fill="rgb(255,255,255)" vector-effect="non-scaling-stroke" stroke-width="2.313" stroke="rgb(255,255,255)" stroke-linejoin="miter" stroke-linecap="square" stroke-miterlimit="3"/><path d=" M 106.339 25.156 Q 114.434 26.509 114.434 25.156 Q 114.434 23.802 122.528 25.156 L 122.528 32.094 Q 114.434 30.74 114.434 32.094 Q 114.434 33.447 106.339 32.094 L 106.339 25.156 Z " fill="rgb(255,255,255)" vector-effect="non-scaling-stroke" stroke-width="2.313" stroke="rgb(255,255,255)" stroke-linejoin="miter" stroke-linecap="square" stroke-miterlimit="3"/></g></svg>