<?xml version="1.0" standalone="no"?><!-- Generator: Gravit.io --><svg xmlns="http://www.w3.org/2000/svg" xmlns:xlink="http://www.w3.org/1999/xlink" style="isolation:isolate" viewBox="0 0 128 128" width="128" height="128"><defs><clipPath id="_clipPath_i4jT9ceolN3gRAznhCJDMWIFrBd64s6E"><rect width="128" height="128"/></clipPath></defs><g clip-path="url(#_clipPath_i4jT9ceolN3gRAznhCJDMWIFrBd64s6E)"><path d=" M 23.95 5 L 82 5 L 109 31 L 109 118.05 C 109 120.782 106.782 123 104.05 123 L 23.95 123 C 21.218 123 19 120.782 19 118.05 L 19 9.95 C 19 7.218 21.218 5 23.95 5 Z " fill="none" vector-effect="non-scaling-stroke" stroke-width="2" stroke="rgb(255,255,255)" stroke-linejoin="miter" stroke-linecap="square" stroke-miterlimit="3"/><clipPath id="_clipPath_Lu4nmLuKLQ6L0RjMBuSyyAjUyyi6IffF"><path d=" M 23.95 5 L 82 5 L 109 31 L 109 118.05 C 109 120.782 106.782 123 104.05 123 L 23.95 123 C 21.218 123 19 120.782 19 118.05 L 19 9.95 C 19 7.218 21.218 5 23.95 5 Z " fill="none" vector-effect="non-scaling-stroke" stroke-width="2" stroke="rgb(255,255,255)" stroke-linejoin="miter" stroke-linecap="square" stroke-miterlimit="3"/></clipPath><g clip-path="url(#_clipPath_Lu4nmLuKLQ6L0RjMBuSyyAjUyyi6IffF)"><path d=" M 82 5 L 109 31 L 86 31 C 83.792 31 82 29.208 82 27 L 82 5" fill="none" vector-effect="non-scaling-stroke" stroke-width="2" stroke="rgb(255,255,255)" stroke-linejoin="miter" stroke-linecap="square" stroke-miterlimit="3"/><line x1="82" y1="5" x2="109" y2="31" vector-effect="non-scaling-stroke" stroke-width="2" stroke="rgb(255,255,255)" stroke-linejoin="miter" stroke-linecap="square" stroke-miterlimit="3"/></g><line x1="29" y1="20" x2="75" y2="20" vector-effect="non-scaling-stroke" stroke-width="2" stroke="rgb(255,255,255)" stroke-linejoin="miter" stroke-linecap="square" stroke-miterlimit="3"/><line x1="29" y1="38" x2="100" y2="38" vector-effect="non-scaling-stroke" stroke-width="2" stroke="rgb(255,255,255)" stroke-linejoin="miter" stroke-linecap="square" stroke-miterlimit="3"/><line x1="29" y1="56" x2="100" y2="56" vector-effect="non-scaling-stroke" stroke-width="2" stroke="rgb(255,255,255)" stroke-linejoin="miter" stroke-linecap="square" stroke-miterlimit="3"/><line x1="29" y1="74" x2="100" y2="74" vector-effect="non-scaling-stroke" stroke-width="2" stroke="rgb(255,255,255)" stroke-linejoin="miter" stroke-linecap="square" stroke-miterlimit="3"/><line x1="29" y1="92" x2="100" y2="92" vector-effect="non-scaling-stroke" stroke-width="2" stroke="rgb(255,255,255)" stroke-linejoin="miter" stroke-linecap="square" stroke-miterlimit="3"/><line x1="29" y1="110" x2="100" y2="110" vector-effect="non-scaling-stroke" stroke-width="2" stroke="rgb(255,255,255)" stroke-linejoin="miter" stroke-linecap="square" stroke-miterlimit="3"/></g></svg>